<?xml version="1.0" encoding="UTF-8" standalone="no"?>
<!-- Created with Inkscape (http://www.inkscape.org/) -->

<svg
   xmlns:dc="http://purl.org/dc/elements/1.1/"
   xmlns:cc="http://creativecommons.org/ns#"
   xmlns:rdf="http://www.w3.org/1999/02/22-rdf-syntax-ns#"
   xmlns:svg="http://www.w3.org/2000/svg"
   xmlns="http://www.w3.org/2000/svg"
   xmlns:sodipodi="http://sodipodi.sourceforge.net/DTD/sodipodi-0.dtd"
   xmlns:inkscape="http://www.inkscape.org/namespaces/inkscape"
   width="2125.9841"
   height="1062.9921"
   id="svg2"
   version="1.1"
   inkscape:version="0.48.5 r10040"
   sodipodi:docname="picamhouder.svg">
  <defs
     id="defs4" />
  <sodipodi:namedview
     id="base"
     pagecolor="#ffffff"
     bordercolor="#666666"
     borderopacity="1.0"
     inkscape:pageopacity="0.0"
     inkscape:pageshadow="2"
     inkscape:zoom="0.29304076"
     inkscape:cx="1324.8188"
     inkscape:cy="899.24535"
     inkscape:document-units="mm"
     inkscape:current-layer="layer1"
     showgrid="false"
     units="mm"
     inkscape:window-width="1798"
     inkscape:window-height="919"
     inkscape:window-x="26"
     inkscape:window-y="36"
     inkscape:window-maximized="1" />
  <metadata
     id="metadata7">
    <rdf:RDF>
      <cc:Work
         rdf:about="">
        <dc:format>image/svg+xml</dc:format>
        <dc:type
           rdf:resource="http://purl.org/dc/dcmitype/StillImage" />
        <dc:title />
      </cc:Work>
    </rdf:RDF>
  </metadata>
  <g
     inkscape:label="Layer 1"
     inkscape:groupmode="layer"
     id="layer1"
     transform="translate(0,10.629915)">
    <path
       id="path4416-4-0-6"
       style="fill:none;stroke:#ff0000;stroke-width:0.35433072;stroke-linecap:butt;stroke-linejoin:miter;stroke-miterlimit:4;stroke-opacity:1;stroke-dasharray:none"
       d="m 1772.1534,1016.3028 146.5983,0 0,-10.4803 43.9416,0 0,10.6066 c 23.0441,0 46.0882,0 69.1323,0 l 75.5217,-72.0581 c 0,-24.01936 0,-48.03873 0,-72.05809 l -10.5357,0 0,-43.92857 10.5357,0 0,-22.32143 m -1398.18588,0 0,22.32143 10.53571,0 0,43.92857 -10.53571,0 c 0,24.01936 0,48.03873 0,72.05809 l 73.90697,72.0581 c 23.35014,0 46.17362,0 70.74702,0 l 0,-10.6066 43.9416,0 0,10.4803 146.59829,0 727.7981,0 m 10e-5,-989.641191 146.5983,0 0,10.48034 43.9416,0 0,-10.6066 c 25.6726,0 50.6168,0 74.7526,0 l 69.9014,72.058085 c 0,24.019366 0,48.038726 0,72.058086 l -10.5357,0 0,43.92857 10.5357,0 0,22.32143 -1e-4,569.16139 m -1398.18588,0 0,-569.16139 0,-22.32143 10.53571,0 0,-43.92857 -10.53571,0 c 0,-24.01936 0,-48.03872 0,-72.058079 L 784.1451,26.535362 c 24.53303,0 48.1805,0 69.67031,0 l 0,10.6066 43.9416,0 0,-10.48034 146.59839,0 727.7981,-1.3e-5"
       inkscape:connector-curvature="0"
       sodipodi:nodetypes="cccccccccccccccccccccccccccccccccccccccccccccccccccc" />
    <path
       style="fill:none;stroke:#ff0000;stroke-width:0.35433072;stroke-miterlimit:4;stroke-opacity:1;stroke-dasharray:none"
       d="m 28.699838,105.11475 -10.67202,0 0,17.37608 10.58525,0 0.0868,18.05698"
       id="path4305"
       inkscape:connector-curvature="0" />
    <path
       style="fill:none;stroke:#ff0000;stroke-width:0.35433072;stroke-miterlimit:4;stroke-opacity:1;stroke-dasharray:none"
       d="m 28.699878,140.5478 -10.67202,0 0,17.37608 10.58525,0 0.0868,18.0571"
       id="path4303"
       inkscape:connector-curvature="0" />
    <path
       style="fill:none;stroke:#ff0000;stroke-width:0.35433072;stroke-miterlimit:4;stroke-opacity:1;stroke-dasharray:none"
       d="m 28.699918,175.98098 -10.67202,0 0,17.376 10.58525,0 -0.0262,10.63691 44.188379,0 44.288003,0 -0.12583,-10.63691"
       id="path4301"
       inkscape:connector-curvature="0" />
    <path
       style="fill:none;stroke:#ff0000;stroke-width:0.35433072;stroke-miterlimit:4;stroke-opacity:1;stroke-dasharray:none"
       d="m 116.9375,193.35698 10.58527,0 0,-17.3761 -10.67203,0 0.0868,-18.057"
       id="path4299"
       inkscape:connector-curvature="0" />
    <path
       style="fill:none;stroke:#ff0000;stroke-width:0.35433072;stroke-miterlimit:4;stroke-opacity:1;stroke-dasharray:none"
       d="m 116.93756,157.92388 10.58527,0 0,-17.37554 -10.67204,0 0.0908,-18.05439"
       id="path4297"
       inkscape:connector-curvature="0" />
    <path
       style="fill:none;stroke:#ff0000;stroke-width:0.35433072;stroke-miterlimit:4;stroke-opacity:1;stroke-dasharray:none"
       d="m 116.94159,122.49395 10.58527,0 0,-17.37608 -10.67203,0 -88.154892,-0.003"
       id="path4295"
       inkscape:connector-curvature="0" />
    <path
       style="fill:none;stroke:#ff0000;stroke-width:0.35433072;stroke-miterlimit:4;stroke-opacity:1;stroke-dasharray:none"
       d="m 39.083878,186.37926 c 0,1.9007 -1.54075,3.4414 -3.44137,3.4414 -1.90062,0 -3.44138,-1.5407 -3.44138,-3.4414 0,-1.9006 1.54076,-3.4413 3.44138,-3.4413 1.90062,0 3.44137,1.5407 3.44137,3.4413 z"
       id="path4293"
       inkscape:connector-curvature="0" />
    <path
       style="fill:none;stroke:#ff0000;stroke-width:0.35433072;stroke-miterlimit:4;stroke-opacity:1;stroke-dasharray:none"
       d="m 113.56857,186.37926 c 0,1.9007 -1.54076,3.4414 -3.44138,3.4414 -1.90062,0 -3.44138,-1.5407 -3.44138,-3.4414 0,-1.9006 1.54076,-3.4413 3.44138,-3.4413 1.90062,0 3.44138,1.5407 3.44138,3.4413 z"
       id="path4291"
       inkscape:connector-curvature="0" />
    <path
       style="fill:none;stroke:#ff0000;stroke-width:0.35433072;stroke-miterlimit:4;stroke-opacity:1;stroke-dasharray:none"
       d="m 39.083878,142.08797 c 0,1.9006 -1.54075,3.4414 -3.44137,3.4414 -1.90062,0 -3.44138,-1.5408 -3.44138,-3.4414 0,-1.90061 1.54076,-3.44139 3.44138,-3.44139 1.90062,0 3.44137,1.54078 3.44137,3.44139 z"
       id="path4289"
       inkscape:connector-curvature="0" />
    <path
       style="fill:none;stroke:#ff0000;stroke-width:0.35433072;stroke-miterlimit:4;stroke-opacity:1;stroke-dasharray:none"
       d="m 113.56857,142.08797 c 0,1.9006 -1.54076,3.4414 -3.44138,3.4414 -1.90062,0 -3.44138,-1.5408 -3.44138,-3.4414 0,-1.90061 1.54076,-3.44139 3.44138,-3.44139 1.90062,0 3.44138,1.54078 3.44138,3.44139 z"
       id="path4287"
       inkscape:connector-curvature="0" />
    <path
       style="fill:none;stroke:#ff0000;stroke-width:0.41285476;stroke-miterlimit:4;stroke-opacity:1;stroke-dasharray:none"
       d="m 51.792368,104.8554 42.109719,0 0,81.85116 -42.109719,0 z"
       id="rect3883-2-0"
       inkscape:connector-curvature="0" />
    <path
       id="path4098"
       style="fill:none;stroke:#ff0000;stroke-width:0.35433072;stroke-miterlimit:4;stroke-opacity:1;stroke-dasharray:none"
       d="m 112.45084,244.28668 c 0,1.9006 -1.54076,3.4414 -3.44138,3.4414 -1.90062,0 -3.44138,-1.5408 -3.44138,-3.4414 0,-1.90061 1.54076,-3.44139 3.44138,-3.44139 1.90062,0 3.44138,1.54078 3.44138,3.44139 z m -74.484693,0 c 0,1.9006 -1.54075,3.4414 -3.44137,3.4414 -1.90062,0 -3.44138,-1.5408 -3.44138,-3.4414 0,-1.90061 1.54076,-3.44139 3.44138,-3.44139 1.90062,0 3.44137,1.54078 3.44137,3.44139 z m 74.484693,44.29129 c 0,1.9007 -1.54076,3.4414 -3.44138,3.4414 -1.90062,0 -3.44138,-1.5407 -3.44138,-3.4414 0,-1.9006 1.54076,-3.4413 3.44138,-3.4413 1.90062,0 3.44138,1.5407 3.44138,3.4413 z m -74.484693,0 c 0,1.9007 -1.54075,3.4414 -3.44137,3.4414 -1.90062,0 -3.44138,-1.5407 -3.44138,-3.4414 0,-1.9006 1.54076,-3.4413 3.44138,-3.4413 1.90062,0 3.44137,1.5407 3.44137,3.4413 z M 100.62338,247.9052 c 0,15.99921 -12.969904,28.96913 -28.969114,28.96913 -15.99922,0 -28.969129,-12.96992 -28.969129,-28.96913 0,-15.99921 12.969909,-28.96912 28.969129,-28.96912 15.99921,0 28.969114,12.96991 28.969114,28.96912 z m -73.041193,-40.59174 -10.67201,0 0,17.37608 10.58525,0 0.0868,18.05698 m 2e-5,-1e-5 -10.67202,0 0,17.37608 10.58524,0 0.0868,18.05709 m 0,0 -10.67201,0 0,17.37601 10.58525,0 -0.0262,10.63691 44.188389,0 44.287994,0 -0.12586,-10.63691 m 0,0 10.58526,0 0,-17.3761 -10.67202,0 0.0868,-18.057 m 2e-5,0 10.58527,0 0,-17.37553 -10.67203,0 0.0908,-18.0544 m 0,0 10.58526,0 0,-17.37607 -10.67202,0 -88.154893,-0.003"
       inkscape:connector-curvature="0" />
    <path
       id="path4098-6"
       style="fill:none;stroke:#ff0000;stroke-width:0.35433072;stroke-miterlimit:4;stroke-opacity:1;stroke-dasharray:none"
       d="m 114.99705,40.74114 c 0,1.9006 -1.54076,3.4414 -3.44138,3.4414 -1.90062,0 -3.44138,-1.5408 -3.44138,-3.4414 0,-1.90061 1.54076,-3.44139 3.44138,-3.44139 1.90062,0 3.44138,1.54078 3.44138,3.44139 z m -74.48469,0 c 0,1.9006 -1.54075,3.4414 -3.44137,3.4414 -1.90062,0 -3.44138,-1.5408 -3.44138,-3.4414 0,-1.90061 1.54076,-3.44139 3.44138,-3.44139 1.90062,0 3.44137,1.54078 3.44137,3.44139 z m 74.48469,44.29129 c 0,1.9007 -1.54076,3.4414 -3.44138,3.4414 -1.90062,0 -3.44138,-1.5407 -3.44138,-3.4414 0,-1.9006 1.54076,-3.4413 3.44138,-3.4413 1.90062,0 3.44138,1.5407 3.44138,3.4413 z m -74.48469,0 c 0,1.9007 -1.54075,3.4414 -3.44137,3.4414 -1.90062,0 -3.44138,-1.5407 -3.44138,-3.4414 0,-1.9006 1.54076,-3.4413 3.44138,-3.4413 1.90062,0 3.44137,1.5407 3.44137,3.4413 z M 30.12841,3.76792 l -10.67202,0 0,17.37608 10.58525,0 0.0868,18.05698 m 10e-6,-1e-5 -10.67202,0 0,17.37608 10.58526,0 0.0868,18.0571 m 0,0 -10.67202,0 0,17.376 10.58526,0 -0.0262,10.63691 44.18837,0 44.288,0 -0.12583,-10.63691 m 0,0 10.58526,0 0,-17.3761 -10.67202,0 0.0868,-18.057 m 2e-5,0 10.58526,0 0,-17.37554 -10.67203,0 0.0908,-18.05439 m 0,0 10.58526,0 0,-17.37608 -10.67202,0 -88.15489,-0.003"
       inkscape:connector-curvature="0" />
    <path
       style="fill:none;stroke:#ff0000;stroke-width:0.35433072;stroke-linecap:butt;stroke-linejoin:miter;stroke-miterlimit:4;stroke-opacity:1;stroke-dasharray:none"
       d="m 95.715,397.9727 0,-17.67858 -21.07143,0 0,-17.67857 21.42857,0 0,-17.67857 -21.42857,0 0,-17.85714 21.42857,0 0,-17.85714 13.82255,0 0,17.90178 10.64174,0 0,17.63393 -10.53571,0 0,17.76786 10.625,0 0,17.76785 -10.625,0 0,17.85715 z"
       id="path4128"
       inkscape:connector-curvature="0"
       sodipodi:nodetypes="ccccccccccccc" />
    <path
       style="fill:none;stroke:#ff0000;stroke-width:0.35433072;stroke-linecap:butt;stroke-linejoin:miter;stroke-miterlimit:4;stroke-opacity:1;stroke-dasharray:none"
       d="m 48.03715,397.48821 0,-17.67858 21.071427,0 0,-17.67857 -21.428567,0 0,-17.67857 21.428567,0 0,-17.85714 -21.428567,0 0,-17.85714 -13.822553,0 0,17.90178 -10.64174,0 0,17.63393 10.53571,0 0,17.76786 -10.625,0 0,17.76785 10.625,0 0,17.85715 z"
       id="path4128-0"
       inkscape:connector-curvature="0"
       sodipodi:nodetypes="ccccccccccccc" />
    <path
       style="fill:none;stroke:#ff0000;stroke-width:0.35433072;stroke-linecap:butt;stroke-linejoin:miter;stroke-miterlimit:4;stroke-opacity:1;stroke-dasharray:none"
       d="m 128.06862,383.92548 0,46.21447 -11.12631,0 0,-11.00382 -88.893408,0 0,10.48032 -10.48033,0 0,-46.06442 10.58006,0 0,21.16456 88.660708,0 0,-20.79112 z"
       id="path4148"
       inkscape:connector-curvature="0"
       sodipodi:nodetypes="ccccccccccccc" />
    <path
       style="fill:none;stroke:#ff0000;stroke-width:0.35433072;stroke-miterlimit:4;stroke-opacity:1;stroke-dasharray:none"
       d="m 26.355887,534.36042 -10.67202,0 0,17.37609 10.58525,0 0.0868,18.05698"
       id="path4283"
       inkscape:connector-curvature="0" />
    <path
       style="fill:none;stroke:#ff0000;stroke-width:0.35433072;stroke-miterlimit:4;stroke-opacity:1;stroke-dasharray:none"
       d="m 26.355927,569.79348 -10.67202,0 0,17.37608 10.58525,0 0.0868,18.0571"
       id="path4281"
       inkscape:connector-curvature="0" />
    <path
       style="fill:none;stroke:#ff0000;stroke-width:0.35433072;stroke-miterlimit:4;stroke-opacity:1;stroke-dasharray:none"
       d="m 26.355967,605.22666 -10.67202,0 0,17.376 10.58525,0 -0.0262,10.63691 44.188379,0 44.288004,0 -0.12583,-10.63691"
       id="path4279"
       inkscape:connector-curvature="0" />
    <path
       style="fill:none;stroke:#ff0000;stroke-width:0.35433072;stroke-miterlimit:4;stroke-opacity:1;stroke-dasharray:none"
       d="m 114.59355,622.60266 10.58527,0 0,-17.3761 -10.67203,0 0.0868,-18.057"
       id="path4277"
       inkscape:connector-curvature="0" />
    <path
       style="fill:none;stroke:#ff0000;stroke-width:0.35433072;stroke-miterlimit:4;stroke-opacity:1;stroke-dasharray:none"
       d="m 114.59361,587.16956 10.58527,0 0,-17.37554 -10.67204,0 0.0908,-18.05439"
       id="path4275"
       inkscape:connector-curvature="0" />
    <path
       style="fill:none;stroke:#ff0000;stroke-width:0.35433072;stroke-miterlimit:4;stroke-opacity:1;stroke-dasharray:none"
       d="m 114.59764,551.73963 10.58527,0 0,-17.37609 -10.67203,0 -88.154893,-0.003"
       id="path4273"
       inkscape:connector-curvature="0" />
    <path
       style="fill:none;stroke:#ff0000;stroke-width:0.35433072;stroke-miterlimit:4;stroke-opacity:1;stroke-dasharray:none"
       d="m 36.739927,615.62494 c 0,1.9007 -1.54075,3.44139 -3.44137,3.44139 -1.90062,0 -3.44138,-1.54069 -3.44138,-3.44139 0,-1.9006 1.54076,-3.44131 3.44138,-3.44131 1.90062,0 3.44137,1.5407 3.44137,3.44131 z"
       id="path4271"
       inkscape:connector-curvature="0" />
    <path
       style="fill:none;stroke:#ff0000;stroke-width:0.35433072;stroke-miterlimit:4;stroke-opacity:1;stroke-dasharray:none"
       d="m 111.22462,615.62494 c 0,1.9007 -1.54076,3.44139 -3.44138,3.44139 -1.90062,0 -3.44138,-1.54069 -3.44138,-3.44139 0,-1.9006 1.54076,-3.44131 3.44138,-3.44131 1.90062,0 3.44138,1.5407 3.44138,3.44131 z"
       id="path4269"
       inkscape:connector-curvature="0" />
    <path
       style="fill:none;stroke:#ff0000;stroke-width:0.35433072;stroke-miterlimit:4;stroke-opacity:1;stroke-dasharray:none"
       d="m 36.739927,571.33365 c 0,1.9006 -1.54075,3.44139 -3.44137,3.44139 -1.90062,0 -3.44138,-1.54079 -3.44138,-3.44139 0,-1.90061 1.54076,-3.44139 3.44138,-3.44139 1.90062,0 3.44137,1.54078 3.44137,3.44139 z"
       id="path4267"
       inkscape:connector-curvature="0" />
    <path
       style="fill:none;stroke:#ff0000;stroke-width:0.35433072;stroke-miterlimit:4;stroke-opacity:1;stroke-dasharray:none"
       d="m 111.22462,571.33365 c 0,1.9006 -1.54076,3.44139 -3.44138,3.44139 -1.90062,0 -3.44138,-1.54079 -3.44138,-3.44139 0,-1.90061 1.54076,-3.44139 3.44138,-3.44139 1.90062,0 3.44138,1.54078 3.44138,3.44139 z"
       id="path4265"
       inkscape:connector-curvature="0" />
    <path
       style="fill:none;stroke:#ff0000;stroke-width:0.35433072;stroke-miterlimit:4;stroke-opacity:1;stroke-dasharray:none"
       d="m 49.448417,534.07993 42.109719,0 0,81.87231 -42.109719,0 z"
       id="rect3883-2-0-6"
       inkscape:connector-curvature="0" />
    <path
       id="path4098-2"
       style="fill:none;stroke:#ff0000;stroke-width:0.35433072;stroke-miterlimit:4;stroke-opacity:1;stroke-dasharray:none"
       d="m 110.10689,673.53236 c 0,1.9006 -1.54076,3.44139 -3.44138,3.44139 -1.90062,0 -3.44138,-1.54079 -3.44138,-3.44139 0,-1.90061 1.54076,-3.4414 3.44138,-3.4414 1.90062,0 3.44138,1.54079 3.44138,3.4414 z m -74.484694,0 c 0,1.9006 -1.54075,3.44139 -3.44137,3.44139 -1.90062,0 -3.44138,-1.54079 -3.44138,-3.44139 0,-1.90061 1.54076,-3.4414 3.44138,-3.4414 1.90062,0 3.44137,1.54079 3.44137,3.4414 z m 74.484694,44.29128 c 0,1.9007 -1.54076,3.4414 -3.44138,3.4414 -1.90062,0 -3.44138,-1.5407 -3.44138,-3.4414 0,-1.9006 1.54076,-3.4413 3.44138,-3.4413 1.90062,0 3.44138,1.5407 3.44138,3.4413 z m -74.484694,0 c 0,1.9007 -1.54075,3.4414 -3.44137,3.4414 -1.90062,0 -3.44138,-1.5407 -3.44138,-3.4414 0,-1.9006 1.54076,-3.4413 3.44138,-3.4413 1.90062,0 3.44137,1.5407 3.44137,3.4413 z m 62.657229,-40.67277 c 0,15.99921 -12.9699,28.96913 -28.96911,28.96913 -15.99922,0 -28.969129,-12.96992 -28.969129,-28.96913 0,-15.99921 12.969909,-28.96912 28.969129,-28.96912 15.99921,0 28.96911,12.96991 28.96911,28.96912 z m -73.041189,-40.59174 -10.672011,0 0,17.37608 10.585251,0 0.0868,18.05698 m 2e-5,-1e-5 -10.672021,0 0,17.37608 10.585241,0 0.0868,18.0571 m 0,0 -10.672011,0 0,17.37601 10.585251,0 -0.0262,10.63691 44.188389,0 44.287995,0 -0.12586,-10.63691 m 0,0 10.58526,0 0,-17.3761 -10.67202,0 0.0868,-18.05701 m 2e-5,0 10.58527,0 0,-17.37553 -10.67203,0 0.0908,-18.0544 m 0,0 10.58526,0 0,-17.37607 -10.67202,0 -88.154894,-0.003"
       inkscape:connector-curvature="0" />
    <path
       id="path4098-6-6"
       style="fill:none;stroke:#ff0000;stroke-width:0.35433072;stroke-miterlimit:4;stroke-opacity:1;stroke-dasharray:none"
       d="m 112.6531,469.98681 c 0,1.9006 -1.54076,3.4414 -3.44138,3.4414 -1.90062,0 -3.44138,-1.5408 -3.44138,-3.4414 0,-1.90061 1.54076,-3.44139 3.44138,-3.44139 1.90062,0 3.44138,1.54078 3.44138,3.44139 z m -74.484691,0 c 0,1.9006 -1.54075,3.4414 -3.44137,3.4414 -1.90062,0 -3.44138,-1.5408 -3.44138,-3.4414 0,-1.90061 1.54076,-3.44139 3.44138,-3.44139 1.90062,0 3.44137,1.54078 3.44137,3.44139 z M 112.6531,514.2781 c 0,1.9007 -1.54076,3.4414 -3.44138,3.4414 -1.90062,0 -3.44138,-1.5407 -3.44138,-3.4414 0,-1.9006 1.54076,-3.4413 3.44138,-3.4413 1.90062,0 3.44138,1.5407 3.44138,3.4413 z m -74.484691,0 c 0,1.9007 -1.54075,3.4414 -3.44137,3.4414 -1.90062,0 -3.44138,-1.5407 -3.44138,-3.4414 0,-1.9006 1.54076,-3.4413 3.44138,-3.4413 1.90062,0 3.44137,1.5407 3.44137,3.4413 z m -10.38395,-81.26451 -10.67202,0 0,17.37608 10.58525,0 0.0868,18.05698 m 10e-6,-10e-6 -10.67202,0 0,17.37608 10.58526,0 0.0868,18.0571 m 0,0 -10.67202,0 0,17.376 10.58526,0 -0.0262,10.63691 44.18837,0 44.288001,0 -0.12583,-10.63691 m 0,0 10.58526,0 0,-17.3761 -10.67202,0 0.0868,-18.057 m 2e-5,0 10.58526,0 0,-17.37554 -10.67203,0 0.0908,-18.05439 m 0,0 10.58526,0 0,-17.37608 -10.67202,0 -88.154891,-0.003"
       inkscape:connector-curvature="0" />
    <path
       style="fill:none;stroke:#ff0000;stroke-width:0.35433072;stroke-linecap:butt;stroke-linejoin:miter;stroke-miterlimit:4;stroke-opacity:1;stroke-dasharray:none"
       d="m 93.371049,827.21838 0,-17.67858 -21.07143,0 0,-17.67857 21.42857,0 0,-17.67857 -21.42857,0 0,-17.85714 21.42857,0 0,-17.85714 13.822551,0 0,17.90177 10.64174,0 0,17.63394 -10.53571,0 0,17.76786 10.625,0 0,17.76785 -10.625,0 0,17.85715 z"
       id="path4128-1"
       inkscape:connector-curvature="0"
       sodipodi:nodetypes="ccccccccccccc" />
    <path
       style="fill:none;stroke:#ff0000;stroke-width:0.35433072;stroke-linecap:butt;stroke-linejoin:miter;stroke-miterlimit:4;stroke-opacity:1;stroke-dasharray:none"
       d="m 45.693199,826.73389 0,-17.67858 21.071427,0 0,-17.67857 -21.428567,0 0,-17.67857 21.428567,0 0,-17.85714 -21.428567,0 0,-17.85714 -13.822553,0 0,17.90178 -10.64174,0 0,17.63393 10.53571,0 0,17.76786 -10.625,0 0,17.76785 10.625,0 0,17.85715 z"
       id="path4128-0-8"
       inkscape:connector-curvature="0"
       sodipodi:nodetypes="ccccccccccccc" />
    <path
       style="fill:none;stroke:#ff0000;stroke-width:0.35433072;stroke-linecap:butt;stroke-linejoin:miter;stroke-miterlimit:4;stroke-opacity:1;stroke-dasharray:none"
       d="m 125.72467,813.17115 0,46.21447 -11.12631,0 0,-11.00382 -88.893409,0 0,10.48032 -10.48033,0 0,-46.06442 10.58006,0 0,21.16456 88.660709,0 0,-20.79111 z"
       id="path4148-7"
       inkscape:connector-curvature="0"
       sodipodi:nodetypes="ccccccccccccc" />
    <path
       style="fill:none;stroke:#ff0000;stroke-width:0.35433072;stroke-miterlimit:4;stroke-opacity:1;stroke-dasharray:none"
       d="m 146.72586,105.58524 -10.67202,0 0,17.37609 10.58525,0 0.0868,18.05698"
       id="path4327"
       inkscape:connector-curvature="0" />
    <path
       style="fill:none;stroke:#ff0000;stroke-width:0.35433072;stroke-miterlimit:4;stroke-opacity:1;stroke-dasharray:none"
       d="m 146.7259,141.0183 -10.67202,0 0,17.37608 10.58525,0 0.0868,18.0571"
       id="path4325"
       inkscape:connector-curvature="0" />
    <path
       style="fill:none;stroke:#ff0000;stroke-width:0.35433072;stroke-miterlimit:4;stroke-opacity:1;stroke-dasharray:none"
       d="m 146.72594,176.45148 -10.67202,0 0,17.376 10.58525,0 -0.0262,10.63691 44.18838,0 44.28801,0 -0.12583,-10.63691"
       id="path4323"
       inkscape:connector-curvature="0" />
    <path
       style="fill:none;stroke:#ff0000;stroke-width:0.35433072;stroke-miterlimit:4;stroke-opacity:1;stroke-dasharray:none"
       d="m 234.96353,193.82748 10.58527,0 0,-17.3761 -10.67203,0 0.0868,-18.057"
       id="path4321"
       inkscape:connector-curvature="0" />
    <path
       style="fill:none;stroke:#ff0000;stroke-width:0.35433072;stroke-miterlimit:4;stroke-opacity:1;stroke-dasharray:none"
       d="m 234.96359,158.39438 10.58527,0 0,-17.37554 -10.67204,0 0.0908,-18.05439"
       id="path4319"
       inkscape:connector-curvature="0" />
    <path
       style="fill:none;stroke:#ff0000;stroke-width:0.35433072;stroke-miterlimit:4;stroke-opacity:1;stroke-dasharray:none"
       d="m 234.96762,122.96445 10.58527,0 0,-17.37609 -10.67203,0 -88.1549,-0.003"
       id="path4317"
       inkscape:connector-curvature="0" />
    <path
       style="fill:none;stroke:#ff0000;stroke-width:0.35433072;stroke-miterlimit:4;stroke-opacity:1;stroke-dasharray:none"
       d="m 157.1099,186.84976 c 0,1.9007 -1.54075,3.44139 -3.44137,3.44139 -1.90062,0 -3.44138,-1.54069 -3.44138,-3.44139 0,-1.9006 1.54076,-3.44131 3.44138,-3.44131 1.90062,0 3.44137,1.5407 3.44137,3.44131 z"
       id="path4315"
       inkscape:connector-curvature="0" />
    <path
       style="fill:none;stroke:#ff0000;stroke-width:0.35433072;stroke-miterlimit:4;stroke-opacity:1;stroke-dasharray:none"
       d="m 231.5946,186.84976 c 0,1.9007 -1.54076,3.44139 -3.44139,3.44139 -1.90062,0 -3.44138,-1.54069 -3.44138,-3.44139 0,-1.9006 1.54076,-3.44131 3.44138,-3.44131 1.90063,0 3.44139,1.5407 3.44139,3.44131 z"
       id="path4313"
       inkscape:connector-curvature="0" />
    <path
       style="fill:none;stroke:#ff0000;stroke-width:0.35433072;stroke-miterlimit:4;stroke-opacity:1;stroke-dasharray:none"
       d="m 157.1099,142.55847 c 0,1.9006 -1.54075,3.44139 -3.44137,3.44139 -1.90062,0 -3.44138,-1.54079 -3.44138,-3.44139 0,-1.90061 1.54076,-3.44139 3.44138,-3.44139 1.90062,0 3.44137,1.54078 3.44137,3.44139 z"
       id="path4311"
       inkscape:connector-curvature="0" />
    <path
       style="fill:none;stroke:#ff0000;stroke-width:0.35433072;stroke-miterlimit:4;stroke-opacity:1;stroke-dasharray:none"
       d="m 231.5946,142.55847 c 0,1.9006 -1.54076,3.44139 -3.44139,3.44139 -1.90062,0 -3.44138,-1.54079 -3.44138,-3.44139 0,-1.90061 1.54076,-3.44139 3.44138,-3.44139 1.90063,0 3.44139,1.54078 3.44139,3.44139 z"
       id="path4309"
       inkscape:connector-curvature="0" />
    <path
       style="fill:none;stroke:#ff0000;stroke-width:0.41302389;stroke-miterlimit:4;stroke-opacity:1;stroke-dasharray:none"
       d="m 169.81839,105.25882 42.10972,0 0,81.91824 -42.10972,0 z"
       id="rect3883-2-0-9"
       inkscape:connector-curvature="0" />
    <path
       id="path4098-20"
       style="fill:none;stroke:#ff0000;stroke-width:0.35433072;stroke-miterlimit:4;stroke-opacity:1;stroke-dasharray:none"
       d="m 230.47687,244.75718 c 0,1.9006 -1.54077,3.44139 -3.44139,3.44139 -1.90062,0 -3.44138,-1.54079 -3.44138,-3.44139 0,-1.90061 1.54076,-3.4414 3.44138,-3.4414 1.90062,0 3.44139,1.54079 3.44139,3.4414 z m -74.4847,0 c 0,1.9006 -1.54075,3.44139 -3.44137,3.44139 -1.90062,0 -3.44138,-1.54079 -3.44138,-3.44139 0,-1.90061 1.54076,-3.4414 3.44138,-3.4414 1.90062,0 3.44137,1.54079 3.44137,3.4414 z m 74.4847,44.29128 c 0,1.9007 -1.54077,3.4414 -3.44139,3.4414 -1.90062,0 -3.44138,-1.5407 -3.44138,-3.4414 0,-1.9006 1.54076,-3.4413 3.44138,-3.4413 1.90062,0 3.44139,1.5407 3.44139,3.4413 z m -74.4847,0 c 0,1.9007 -1.54075,3.4414 -3.44137,3.4414 -1.90062,0 -3.44138,-1.5407 -3.44138,-3.4414 0,-1.9006 1.54076,-3.4413 3.44138,-3.4413 1.90062,0 3.44137,1.5407 3.44137,3.4413 z m 62.65723,-40.67277 c 0,15.99921 -12.9699,28.96913 -28.96911,28.96913 -15.99922,0 -28.96913,-12.96992 -28.96913,-28.96913 0,-15.99921 12.96991,-28.96912 28.96913,-28.96912 15.99921,0 28.96911,12.96991 28.96911,28.96912 z m -73.04119,-40.59174 -10.67201,0 0,17.37608 10.58525,0 0.0868,18.05698 m 2e-5,-10e-6 -10.67202,0 0,17.37608 10.58524,0 0.0868,18.0571 m 0,0 -10.67201,0 0,17.37601 10.58525,0 -0.0262,10.63691 44.18839,0 44.288,0 -0.12586,-10.63691 m 0,0 10.58526,0 0,-17.3761 -10.67202,0 0.0868,-18.05701 m 2e-5,0 10.58527,0 0,-17.37553 -10.67203,0 0.0908,-18.0544 m 0,0 10.58526,0 0,-17.37607 -10.67202,0 -88.1549,-0.003"
       inkscape:connector-curvature="0" />
    <path
       id="path4098-6-2"
       style="fill:none;stroke:#ff0000;stroke-width:0.35433072;stroke-miterlimit:4;stroke-opacity:1;stroke-dasharray:none"
       d="m 233.02308,41.211633 c 0,1.9006 -1.54076,3.4414 -3.44138,3.4414 -1.90062,0 -3.44138,-1.5408 -3.44138,-3.4414 0,-1.90061 1.54076,-3.44139 3.44138,-3.44139 1.90062,0 3.44138,1.54078 3.44138,3.44139 z m -74.48469,0 c 0,1.9006 -1.54075,3.4414 -3.44137,3.4414 -1.90062,0 -3.44138,-1.5408 -3.44138,-3.4414 0,-1.90061 1.54076,-3.44139 3.44138,-3.44139 1.90062,0 3.44137,1.54078 3.44137,3.44139 z m 74.48469,44.29129 c 0,1.9007 -1.54076,3.4414 -3.44138,3.4414 -1.90062,0 -3.44138,-1.5407 -3.44138,-3.4414 0,-1.9006 1.54076,-3.4413 3.44138,-3.4413 1.90062,0 3.44138,1.5407 3.44138,3.4413 z m -74.48469,0 c 0,1.9007 -1.54075,3.4414 -3.44137,3.4414 -1.90062,0 -3.44138,-1.5407 -3.44138,-3.4414 0,-1.9006 1.54076,-3.4413 3.44138,-3.4413 1.90062,0 3.44137,1.5407 3.44137,3.4413 z m -10.38395,-81.2645083 -10.67202,0 0,17.3760783 10.58525,0 0.0868,18.05698 m 1e-5,-10e-6 -10.67202,0 0,17.37608 10.58526,0 0.0868,18.0571 m 0,0 -10.67202,0 0,17.376 10.58526,0 -0.0262,10.636907 44.18837,0 44.288,0 -0.12583,-10.636907 m 0,0 10.58526,0 0,-17.3761 -10.67202,0 0.0868,-18.057 m 2e-5,0 10.58526,0 0,-17.37554 -10.67203,0 0.0908,-18.05439 m 0,0 10.58526,0 0,-17.3760783 -10.67202,0 -88.15489,-0.003"
       inkscape:connector-curvature="0" />
    <path
       style="fill:none;stroke:#ff0000;stroke-width:0.35433072;stroke-linecap:butt;stroke-linejoin:miter;stroke-miterlimit:4;stroke-opacity:1;stroke-dasharray:none"
       d="m 213.74103,398.4432 0,-17.67858 -21.07143,0 0,-17.67857 21.42857,0 0,-17.67857 -21.42857,0 0,-17.85714 21.42857,0 0,-17.85714 13.82255,0 0,17.90177 10.64174,0 0,17.63394 -10.53571,0 0,17.76786 10.625,0 0,17.76785 -10.625,0 0,17.85715 z"
       id="path4128-3"
       inkscape:connector-curvature="0"
       sodipodi:nodetypes="ccccccccccccc" />
    <path
       style="fill:none;stroke:#ff0000;stroke-width:0.35433072;stroke-linecap:butt;stroke-linejoin:miter;stroke-miterlimit:4;stroke-opacity:1;stroke-dasharray:none"
       d="m 166.06318,397.95871 0,-17.67858 21.07142,0 0,-17.67857 -21.42856,0 0,-17.67857 21.42856,0 0,-17.85714 -21.42856,0 0,-17.85714 -13.82256,0 0,17.90178 -10.64174,0 0,17.63393 10.53571,0 0,17.76786 -10.625,0 0,17.76785 10.625,0 0,17.85715 z"
       id="path4128-0-7"
       inkscape:connector-curvature="0"
       sodipodi:nodetypes="ccccccccccccc" />
    <path
       style="fill:none;stroke:#ff0000;stroke-width:0.35433072;stroke-linecap:butt;stroke-linejoin:miter;stroke-miterlimit:4;stroke-opacity:1;stroke-dasharray:none"
       d="m 246.09465,384.39597 0,46.21447 -11.12631,0 0,-11.00382 -88.89341,0 0,10.48032 -10.48033,0 0,-46.06442 10.58006,0 0,21.16456 88.66071,0 0,-20.79111 z"
       id="path4148-5"
       inkscape:connector-curvature="0"
       sodipodi:nodetypes="ccccccccccccc" />
    <path
       style="fill:none;stroke:#ff0000;stroke-width:0.35433072;stroke-miterlimit:4;stroke-opacity:1;stroke-dasharray:none"
       d="m 144.38191,534.83092 -10.67202,0 0,17.37609 10.58525,0 0.0868,18.05697"
       id="path4261"
       inkscape:connector-curvature="0" />
    <path
       style="fill:none;stroke:#ff0000;stroke-width:0.35433072;stroke-miterlimit:4;stroke-opacity:1;stroke-dasharray:none"
       d="m 144.38195,570.26397 -10.67202,0 0,17.37608 10.58525,0 0.0868,18.0571"
       id="path4259"
       inkscape:connector-curvature="0" />
    <path
       style="fill:none;stroke:#ff0000;stroke-width:0.35433072;stroke-miterlimit:4;stroke-opacity:1;stroke-dasharray:none"
       d="m 144.38199,605.69715 -10.67202,0 0,17.376 10.58525,0 -0.0262,10.63691 44.18838,0 44.28801,0 -0.12583,-10.63691"
       id="path4257"
       inkscape:connector-curvature="0" />
    <path
       style="fill:none;stroke:#ff0000;stroke-width:0.35433072;stroke-miterlimit:4;stroke-opacity:1;stroke-dasharray:none"
       d="m 232.61958,623.07315 10.58527,0 0,-17.3761 -10.67203,0 0.0868,-18.057"
       id="path4255"
       inkscape:connector-curvature="0" />
    <path
       style="fill:none;stroke:#ff0000;stroke-width:0.35433072;stroke-miterlimit:4;stroke-opacity:1;stroke-dasharray:none"
       d="m 232.61964,587.64005 10.58527,0 0,-17.37554 -10.67204,0 0.0908,-18.05439"
       id="path4253"
       inkscape:connector-curvature="0" />
    <path
       style="fill:none;stroke:#ff0000;stroke-width:0.35433072;stroke-miterlimit:4;stroke-opacity:1;stroke-dasharray:none"
       d="m 232.62367,552.21012 10.58527,0 0,-17.37609 -10.67203,0 -88.1549,-0.003"
       id="path4251"
       inkscape:connector-curvature="0" />
    <path
       style="fill:none;stroke:#ff0000;stroke-width:0.35433072;stroke-miterlimit:4;stroke-opacity:1;stroke-dasharray:none"
       d="m 154.76595,616.09543 c 0,1.90071 -1.54075,3.44139 -3.44137,3.44139 -1.90062,0 -3.44138,-1.54069 -3.44138,-3.44139 0,-1.9006 1.54076,-3.44131 3.44138,-3.44131 1.90062,0 3.44137,1.5407 3.44137,3.44131 z"
       id="path4249"
       inkscape:connector-curvature="0" />
    <path
       style="fill:none;stroke:#ff0000;stroke-width:0.35433072;stroke-miterlimit:4;stroke-opacity:1;stroke-dasharray:none"
       d="m 229.25065,616.09543 c 0,1.90071 -1.54076,3.44139 -3.44139,3.44139 -1.90062,0 -3.44138,-1.54069 -3.44138,-3.44139 0,-1.9006 1.54076,-3.44131 3.44138,-3.44131 1.90063,0 3.44139,1.5407 3.44139,3.44131 z"
       id="path4247"
       inkscape:connector-curvature="0" />
    <path
       style="fill:none;stroke:#ff0000;stroke-width:0.35433072;stroke-miterlimit:4;stroke-opacity:1;stroke-dasharray:none"
       d="m 154.76595,571.80414 c 0,1.90061 -1.54075,3.44139 -3.44137,3.44139 -1.90062,0 -3.44138,-1.54079 -3.44138,-3.44139 0,-1.90061 1.54076,-3.44138 3.44138,-3.44138 1.90062,0 3.44137,1.54078 3.44137,3.44138 z"
       id="path4245"
       inkscape:connector-curvature="0" />
    <path
       style="fill:none;stroke:#ff0000;stroke-width:0.35433072;stroke-miterlimit:4;stroke-opacity:1;stroke-dasharray:none"
       d="m 229.25065,571.80414 c 0,1.90061 -1.54076,3.44139 -3.44139,3.44139 -1.90062,0 -3.44138,-1.54079 -3.44138,-3.44139 0,-1.90061 1.54076,-3.44138 3.44138,-3.44138 1.90063,0 3.44139,1.54078 3.44139,3.44138 z"
       id="path4243"
       inkscape:connector-curvature="0" />
    <path
       style="fill:none;stroke:#ff0000;stroke-width:0.35433072;stroke-miterlimit:4;stroke-opacity:1;stroke-dasharray:none"
       d="m 167.47444,534.75701 42.10972,0 0,81.66572 -42.10972,0 z"
       id="rect3883-2-0-6-9"
       inkscape:connector-curvature="0" />
    <path
       id="path4098-2-2"
       style="fill:none;stroke:#ff0000;stroke-width:0.35433072;stroke-miterlimit:4;stroke-opacity:1;stroke-dasharray:none"
       d="m 228.13292,674.00285 c 0,1.90061 -1.54077,3.44139 -3.44139,3.44139 -1.90062,0 -3.44138,-1.54079 -3.44138,-3.44139 0,-1.90061 1.54076,-3.4414 3.44138,-3.4414 1.90062,0 3.44139,1.54079 3.44139,3.4414 z m -74.4847,0 c 0,1.90061 -1.54075,3.44139 -3.44137,3.44139 -1.90062,0 -3.44138,-1.54079 -3.44138,-3.44139 0,-1.90061 1.54076,-3.4414 3.44138,-3.4414 1.90062,0 3.44137,1.54079 3.44137,3.4414 z m 74.4847,44.29129 c 0,1.9007 -1.54077,3.4414 -3.44139,3.4414 -1.90062,0 -3.44138,-1.5407 -3.44138,-3.4414 0,-1.90061 1.54076,-3.4413 3.44138,-3.4413 1.90062,0 3.44139,1.5407 3.44139,3.4413 z m -74.4847,0 c 0,1.9007 -1.54075,3.4414 -3.44137,3.4414 -1.90062,0 -3.44138,-1.5407 -3.44138,-3.4414 0,-1.90061 1.54076,-3.4413 3.44138,-3.4413 1.90062,0 3.44137,1.5407 3.44137,3.4413 z m 62.65723,-40.67278 c 0,15.99921 -12.9699,28.96913 -28.96911,28.96913 -15.99922,0 -28.96913,-12.96992 -28.96913,-28.96913 0,-15.9992 12.96991,-28.96911 28.96913,-28.96911 15.99921,0 28.96911,12.96991 28.96911,28.96911 z m -73.04119,-40.59173 -10.67201,0 0,17.37608 10.58525,0 0.0868,18.05697 m 2e-5,0 -10.67202,0 0,17.37608 10.58524,0 0.0868,18.0571 m 0,0 -10.67201,0 0,17.376 10.58525,0 -0.0262,10.63692 44.18839,0 44.288,0 -0.12586,-10.63691 m 0,0 10.58526,0 0,-17.3761 -10.67202,0 0.0868,-18.05701 m 2e-5,0 10.58527,0 0,-17.37553 -10.67203,0 0.0908,-18.0544 m 0,0 10.58526,0 0,-17.37607 -10.67202,0 -88.1549,-0.003"
       inkscape:connector-curvature="0" />
    <path
       id="path4098-6-6-2"
       style="fill:none;stroke:#ff0000;stroke-width:0.35433072;stroke-miterlimit:4;stroke-opacity:1;stroke-dasharray:none"
       d="m 230.67913,470.4573 c 0,1.9006 -1.54076,3.4414 -3.44138,3.4414 -1.90062,0 -3.44138,-1.5408 -3.44138,-3.4414 0,-1.9006 1.54076,-3.44139 3.44138,-3.44139 1.90062,0 3.44138,1.54078 3.44138,3.44139 z m -74.48469,0 c 0,1.9006 -1.54075,3.4414 -3.44137,3.4414 -1.90062,0 -3.44138,-1.5408 -3.44138,-3.4414 0,-1.9006 1.54076,-3.44139 3.44138,-3.44139 1.90062,0 3.44137,1.54078 3.44137,3.44139 z m 74.48469,44.29129 c 0,1.9007 -1.54076,3.4414 -3.44138,3.4414 -1.90062,0 -3.44138,-1.5407 -3.44138,-3.4414 0,-1.9006 1.54076,-3.4413 3.44138,-3.4413 1.90062,0 3.44138,1.5407 3.44138,3.4413 z m -74.48469,0 c 0,1.9007 -1.54075,3.4414 -3.44137,3.4414 -1.90062,0 -3.44138,-1.5407 -3.44138,-3.4414 0,-1.9006 1.54076,-3.4413 3.44138,-3.4413 1.90062,0 3.44137,1.5407 3.44137,3.4413 z m -10.38395,-81.26451 -10.67202,0 0,17.37608 10.58525,0 0.0868,18.05698 m 1e-5,-1e-5 -10.67202,0 0,17.37608 10.58526,0 0.0868,18.0571 m 0,0 -10.67202,0 0,17.37601 10.58526,0 -0.0262,10.6369 44.18837,0 44.288,0 -0.12583,-10.6369 m 0,0 10.58526,0 0,-17.3761 -10.67202,0 0.0868,-18.05701 m 2e-5,0 10.58526,0 0,-17.37554 -10.67203,0 0.0908,-18.05439 m 0,0 10.58526,0 0,-17.37608 -10.67202,0 -88.15489,-0.003"
       inkscape:connector-curvature="0" />
    <path
       style="fill:none;stroke:#ff0000;stroke-width:0.35433072;stroke-linecap:butt;stroke-linejoin:miter;stroke-miterlimit:4;stroke-opacity:1;stroke-dasharray:none"
       d="m 211.39708,827.68887 0,-17.67858 -21.07143,0 0,-17.67857 21.42857,0 0,-17.67857 -21.42857,0 0,-17.85714 21.42857,0 0,-17.85714 13.82255,0 0,17.90177 10.64174,0 0,17.63394 -10.53571,0 0,17.76786 10.625,0 0,17.76785 -10.625,0 0,17.85715 z"
       id="path4128-1-8"
       inkscape:connector-curvature="0"
       sodipodi:nodetypes="ccccccccccccc" />
    <path
       style="fill:none;stroke:#ff0000;stroke-width:0.35433072;stroke-linecap:butt;stroke-linejoin:miter;stroke-miterlimit:4;stroke-opacity:1;stroke-dasharray:none"
       d="m 163.71923,827.20439 0,-17.67858 21.07142,0 0,-17.67858 -21.42856,0 0,-17.67857 21.42856,0 0,-17.85714 -21.42856,0 0,-17.85713 -13.82256,0 0,17.90178 -10.64174,0 0,17.63393 10.53571,0 0,17.76786 -10.625,0 0,17.76785 10.625,0 0,17.85715 z"
       id="path4128-0-8-9"
       inkscape:connector-curvature="0"
       sodipodi:nodetypes="ccccccccccccc" />
    <path
       style="fill:none;stroke:#ff0000;stroke-width:0.35433072;stroke-linecap:butt;stroke-linejoin:miter;stroke-miterlimit:4;stroke-opacity:1;stroke-dasharray:none"
       d="m 243.7507,813.64165 0,46.21447 -11.12631,0 0,-11.00382 -88.89341,0 0,10.48032 -10.48033,0 0,-46.06442 10.58006,0 0,21.16456 88.66071,0 0,-20.79111 z"
       id="path4148-7-7"
       inkscape:connector-curvature="0"
       sodipodi:nodetypes="ccccccccccccc" />
    <path
       id="rect4372-2"
       style="fill:none;stroke:#ff0000;stroke-width:0.35433072;stroke-miterlimit:4;stroke-opacity:1"
       d="m 521.20572,152.92107 0,-10.52595 88.47871,0 0,10.52595 z m -122.26193,111.31775 10.52595,0 0,88.4787 -10.52595,0 z m -93.49303,-138.78117 77.56798,-77.56798 32.46905,32.46905 -77.56798,77.56798 z m 341.6851,-13.23732 -213.63122,0 31.86161,-31.86161 -82.3475,-82.3475 -127.44642,127.44643 82.3475,82.3475 31.8616,-31.86161 0,212.09239 68.17396,0 0,-204.9347 209.18047,0 z"
       inkscape:connector-curvature="0" />
    <path
       style="fill:none;stroke:#ff0000;stroke-width:0.35433071;stroke-linecap:butt;stroke-linejoin:miter;stroke-miterlimit:4;stroke-opacity:1;stroke-dasharray:none"
       d="m 16.951437,948.52242 0,-88.03572 59.64286,0 0,22.00974 10.62092,0 0,44.01846 -10.62092,0 0,22.00748 z"
       id="path4394"
       inkscape:connector-curvature="0"
       sodipodi:nodetypes="ccccccccc" />
    <path
       style="fill:none;stroke:#ff0000;stroke-width:0.35433071;stroke-linecap:butt;stroke-linejoin:miter;stroke-miterlimit:4;stroke-opacity:1;stroke-dasharray:none"
       d="m 16.588615,1040.857 0,-88.03578 59.64286,0 0,22.00974 10.62087,0 0,44.01854 -10.62087,0 0,22.0075 z"
       id="path4394-9"
       inkscape:connector-curvature="0"
       sodipodi:nodetypes="ccccccccc" />
    <path
       style="fill:none;stroke:#ff0000;stroke-width:0.35433072;stroke-linecap:butt;stroke-linejoin:miter;stroke-miterlimit:4;stroke-opacity:1;stroke-dasharray:none"
       d="m 90.192378,948.78414 0,-88.03572 59.642862,0 0,22.00974 10.62092,0 0,44.01846 -10.62092,0 0,22.00748 z"
       id="path4394-7"
       inkscape:connector-curvature="0"
       sodipodi:nodetypes="ccccccccc" />
    <path
       style="fill:none;stroke:#ff0000;stroke-width:0.35433072;stroke-linecap:butt;stroke-linejoin:miter;stroke-miterlimit:4;stroke-opacity:1;stroke-dasharray:none"
       d="m 89.829556,1041.1187 0,-88.03576 59.642864,0 0,22.00975 10.62087,0 0,44.01851 -10.62087,0 0,22.0075 z"
       id="path4394-9-8"
       inkscape:connector-curvature="0"
       sodipodi:nodetypes="ccccccccc" />
    <path
       style="fill:none;stroke:#ff0000;stroke-width:0.35433072;stroke-linecap:butt;stroke-linejoin:miter;stroke-miterlimit:4;stroke-opacity:1;stroke-dasharray:none"
       d="m 162.54952,949.56986 0,-88.03572 59.64286,0 0,22.00974 10.62092,0 0,44.01846 -10.62092,0 0,22.00748 z"
       id="path4394-4"
       inkscape:connector-curvature="0"
       sodipodi:nodetypes="ccccccccc" />
    <path
       style="fill:none;stroke:#ff0000;stroke-width:0.35433072;stroke-linecap:butt;stroke-linejoin:miter;stroke-miterlimit:4;stroke-opacity:1;stroke-dasharray:none"
       d="m 162.1867,1041.9044 0,-88.03574 59.64286,0 0,22.00974 10.62087,0 0,44.0185 -10.62087,0 0,22.0075 z"
       id="path4394-9-5"
       inkscape:connector-curvature="0"
       sodipodi:nodetypes="ccccccccc" />
    <path
       style="fill:none;stroke:#ff0000;stroke-width:0.35433072;stroke-linecap:butt;stroke-linejoin:miter;stroke-miterlimit:4;stroke-opacity:1;stroke-dasharray:none"
       d="m 237.32081,1042.6057 0,-88.03569 59.64286,0 0,22.00974 10.62092,0 0,44.01845 -10.62092,0 0,22.0075 z"
       id="path4394-0"
       inkscape:connector-curvature="0"
       sodipodi:nodetypes="ccccccccc" />
    <path
       style="fill:none;stroke:#ff0000;stroke-width:0.35433072;stroke-linecap:butt;stroke-linejoin:miter;stroke-miterlimit:4;stroke-opacity:1;stroke-dasharray:none"
       d="m 316.95799,1042.0832 0,-88.03583 59.64286,0 0,22.0098 10.62087,0 0,44.01853 -10.62087,0 0,22.0075 z"
       id="path4394-9-3"
       inkscape:connector-curvature="0"
       sodipodi:nodetypes="ccccccccc" />
    <path
       inkscape:connector-curvature="0"
       id="rect4372-2-6"
       style="fill:none;stroke:#ff0000;stroke-width:0.35433072;stroke-miterlimit:4;stroke-opacity:1"
       d="m 380.14839,423.6075 0,10.52595 -88.47871,0 0,-10.52595 z m 122.26193,-111.31774 -10.52595,0 0,-88.4787 10.52595,0 z m 93.49304,138.78116 -77.56799,77.56799 -32.46905,-32.46905 77.56799,-77.56798 z m -341.68511,13.23732 213.63121,0 -31.86161,31.86162 82.34749,82.3475 127.44643,-127.44644 -82.3475,-82.3475 -31.86161,31.86162 0,-212.09239 -68.17396,0 0,204.9347 -209.18047,0 z" />
    <path
       inkscape:connector-curvature="0"
       id="rect4372-2-3"
       style="fill:none;stroke:#ff0000;stroke-width:0.35433072;stroke-miterlimit:4;stroke-opacity:1"
       d="m 521.28019,623.68823 0,-10.52595 88.47871,0 0,10.52595 z m -122.26193,111.31774 10.52595,0 0,88.4787 -10.52595,0 z m -93.49303,-138.78116 77.56798,-77.56799 32.46905,32.46905 -77.56798,77.56798 z m 341.6851,-13.23732 -213.63122,0 31.86161,-31.86162 -82.3475,-82.3475 -127.44642,127.44644 82.3475,82.3475 31.8616,-31.86162 0,212.09238 68.17396,0 0,-204.93469 209.18047,0 z" />
    <path
       inkscape:connector-curvature="0"
       id="rect4372-2-2"
       style="fill:none;stroke:#ff0000;stroke-width:0.35433072;stroke-miterlimit:4;stroke-opacity:1"
       d="m 376.71984,891.60744 0,10.52597 -88.47871,0 0,-10.52597 z m 122.26195,-111.31771 -10.52597,0 0,-88.4787 10.52597,0 z m 93.493,138.78108 -77.568,77.56799 -32.46903,-32.46899 77.56803,-77.568 z m -341.68509,13.2374 213.63122,0 -31.86161,31.8616 82.34748,82.34749 127.4464,-127.44649 -82.3475,-82.34747 -31.8616,31.86162 0,-212.09233 -68.17393,0 0,204.93465 -209.18047,0 z" />
    <path
       id="path3303-2-9-1-2-7-0-9-3-6-0-6"
       style="fill:none;stroke:#000000;stroke-width:1.33385384px;stroke-linecap:butt;stroke-linejoin:miter;stroke-opacity:1"
       d="M 710.47702,27.85976 1071.8624,59.47699 M 710.73272,27.829363 1067.9873,90.823093 M 710.57387,27.50229 1051.462,151.57557 M 710.51992,27.834272 1039.2973,181.14579 M 710.77411,27.856501 1007.9345,235.93047 M 710.47103,27.548138 988.36573,260.72954 M 710.34492,27.975934 943.5262,305.87069 M 710.35165,27.779233 918.42551,324.9396 M 710.3294,27.525032 863.6408,356.3025 M 710.6953,27.691335 834.7685,368.57968 M 710.62614,27.539706 773.61976,384.79428 M 710.60479,27.451374 742.22191,388.83674 m 425.61679,-361.104259 -457.14303,7e-5 M 1151.7543,145.99808 710.18809,27.680856 M 1106.4407,256.51373 710.54331,27.942344 M 1033.8106,351.21292 710.56167,27.964131 M 939.17141,423.78262 710.6,27.885299 M 829.13697,469.22554 710.81969,27.659448 m -0.24825,456.702692 0,-457.142862" />
    <path
       inkscape:connector-curvature="0"
       id="path3303-2-9-1-2-7-0-9-3-6-0-6-8"
       style="fill:none;stroke:#000000;stroke-width:1.33385384px;stroke-linecap:butt;stroke-linejoin:miter;stroke-opacity:1"
       d="m 710.21932,1015.4688 31.6172,-361.38543 m -31.6476,361.12973 62.9937,-357.25463 m -63.3208,357.41343 124.0733,-340.88813 m -123.7413,340.94213 153.3115,-328.77743 m -153.2893,328.52323 208.074,-297.16043 M 709.90762,1015.4748 943.08902,737.57997 M 710.33542,1015.6009 988.23022,782.41957 M 710.13872,1015.5942 1007.2991,807.52027 M 709.88452,1015.6164 1038.662,862.30497 M 710.05082,1015.2505 1050.9392,891.17727 M 709.89922,1015.3197 1067.1538,952.32597 M 709.81092,1015.341 1071.1962,983.72387 m -361.10418,-425.6168 0,457.14303 M 828.35762,574.19147 710.04032,1015.7577 M 938.87322,619.50507 710.30182,1015.4025 M 1033.5724,692.13517 710.32362,1015.3841 M 1106.1421,786.77437 710.24482,1015.3458 M 1151.585,896.80877 710.01892,1015.1261 m 456.70268,0.2483 -457.14278,0" />
    <path
       inkscape:connector-curvature="0"
       id="path3303-2-9-1-2-7-0-9-3-6-0-6-7"
       style="fill:none;stroke:#000000;stroke-width:1.33385384px;stroke-linecap:butt;stroke-linejoin:miter;stroke-opacity:1"
       d="m 2106.11,1015.0848 -361.3853,-31.61721 m 361.1296,31.64761 -357.2545,-62.99371 m 357.4134,63.32081 -340.8881,-124.07331 m 340.942,123.74131 -328.7773,-153.31151 M 2105.813,1015.0881 1808.6526,807.01409 M 2106.116,1015.3965 1828.2213,782.21499 m 278.0208,232.75371 -233.1812,-277.89481 m 233.1745,278.09151 -208.0739,-297.16041 m 208.0962,297.41461 -153.3114,-328.77751 m 152.9455,328.61121 -124.0732,-340.88841 m 124.1423,341.04001 -62.9936,-357.25461 m 63.015,357.34291 -31.6171,-361.38531 m -425.6168,361.10421 457.143,-10e-5 M 1664.8328,896.94649 2106.399,1015.2637 m -396.2526,-228.83282 395.8974,228.57132 m -323.2673,-323.27052 323.2489,323.24882 m -228.6098,-395.81852 228.5715,395.89732 m -118.537,-441.34022 118.3173,441.56602 m 0.2482,-456.70261 0,457.14281" />
    <path
       inkscape:connector-curvature="0"
       id="path3303-2-9-1-2-7-0-9-3-6-0-6-9"
       style="fill:none;stroke:#000000;stroke-width:1.33385384px;stroke-linecap:butt;stroke-linejoin:miter;stroke-opacity:1"
       d="M 2105.8467,27.536386 2074.2295,388.92178 M 2105.8771,27.792086 2042.8834,385.04668 M 2106.2042,27.633186 1982.1309,368.52138 M 2105.8722,27.579286 1952.5607,356.35668 M 2105.85,27.833486 1897.776,324.99388 M 2106.1584,27.530386 1872.977,305.42508 M 2105.7306,27.404286 1827.8358,260.58558 M 2105.9273,27.410986 1808.7669,235.48488 M 2106.1815,27.388786 1777.404,180.70018 M 2106.0152,27.754686 1765.1268,151.82788 m 341.04,-124.142394 -357.2546,62.9936 m 357.3429,-63.0149 -361.3853,31.6171 m 361.1042,425.616794 0,-457.143094 M 1987.7084,468.81368 2106.0256,27.247486 M 1877.1928,423.50008 2105.7642,27.602686 M 1782.4936,350.86998 2105.7424,27.620986 M 1709.9239,256.23078 2105.8212,27.659386 M 1664.481,146.19628 2106.0471,27.879086 m -456.7027,-0.2483 457.1428,0" />
  </g>
</svg>
