<?xml version="1.0" encoding="UTF-8" standalone="no"?>
<!-- Created with Inkscape (http://www.inkscape.org/) -->

<svg
   xmlns:dc="http://purl.org/dc/elements/1.1/"
   xmlns:cc="http://creativecommons.org/ns#"
   xmlns:rdf="http://www.w3.org/1999/02/22-rdf-syntax-ns#"
   xmlns:svg="http://www.w3.org/2000/svg"
   xmlns="http://www.w3.org/2000/svg"
   xmlns:sodipodi="http://sodipodi.sourceforge.net/DTD/sodipodi-0.dtd"
   xmlns:inkscape="http://www.inkscape.org/namespaces/inkscape"
   width="2125.9841"
   height="1062.9921"
   id="svg2"
   version="1.1"
   inkscape:version="0.48.5 r10040"
   sodipodi:docname="screenholder.svg">
  <defs
     id="defs4" />
  <sodipodi:namedview
     id="base"
     pagecolor="#ffffff"
     bordercolor="#666666"
     borderopacity="1.0"
     inkscape:pageopacity="0.0"
     inkscape:pageshadow="2"
     inkscape:zoom="0.35"
     inkscape:cx="203.51328"
     inkscape:cy="413.62172"
     inkscape:document-units="mm"
     inkscape:current-layer="layer1"
     showgrid="false"
     units="mm"
     inkscape:window-width="1824"
     inkscape:window-height="935"
     inkscape:window-x="0"
     inkscape:window-y="20"
     inkscape:window-maximized="1" />
  <metadata
     id="metadata7">
    <rdf:RDF>
      <cc:Work
         rdf:about="">
        <dc:format>image/svg+xml</dc:format>
        <dc:type
           rdf:resource="http://purl.org/dc/dcmitype/StillImage" />
        <dc:title></dc:title>
      </cc:Work>
    </rdf:RDF>
  </metadata>
  <g
     inkscape:label="Layer 1"
     inkscape:groupmode="layer"
     id="layer1"
     transform="translate(0,10.629908)">
    <path
       style="fill:none;stroke:#ff0000;stroke-width:0.35432771;stroke-linecap:butt;stroke-linejoin:miter;stroke-miterlimit:4;stroke-opacity:1;stroke-dasharray:none"
       d="m 243.84146,903.51129 0,-17.6785 21.071,0 0,-17.6786 -21.4281,0 0,-17.6787 21.4281,0 0,-17.8571 -21.4281,0 0,-113.1024 -13.8224,0 0,113.147 -10.6415,0 0,17.634 10.5355,0 0,17.7679 -10.6248,0 0,17.7679 10.6248,0 0,17.8571 z"
       id="path4075"
       inkscape:connector-curvature="0" />
    <path
       style="fill:none;stroke:#ff0000;stroke-width:0.35432771;stroke-linecap:butt;stroke-linejoin:miter;stroke-miterlimit:4;stroke-opacity:1;stroke-dasharray:none"
       d="m 267.29518,1029.4171 0,-17.6786 -21.0712,0 0,-17.6785 21.4283,0 0,-17.67863 -21.4283,0 0,-17.85718 21.4283,0 0,-113.1023 13.8223,0 0,113.147 10.6415,0 0,17.63388 -10.5355,0 0,17.76793 10.6248,0 0,17.7678 -10.6248,0 0,17.8572 z"
       id="path4073"
       inkscape:connector-curvature="0" />
    <path
       id="path4053"
       style="fill:none;stroke:#ff0000;stroke-width:0.35432771;stroke-linecap:butt;stroke-linejoin:miter;stroke-miterlimit:4;stroke-opacity:1;stroke-dasharray:none"
       d="m 101.80766,809.00894 0,10.5853 112.6213,0 0,-10.672 0,-88.1549 m -148.054205,88.2374 0,10.5853 17.3755,0 0,-10.6721 18.054405,0.091 m -70.863005,0 0,10.5853 17.3761,0 0,-10.672 18.057,0.087 m -18.0571,-88.238 0,-10.6721 -17.376,0 0,10.58529 -10.6369,-0.026 0,44.1884 0,44.288 10.6369,-0.1259 m 52.8092,-88.238 0,-10.672 -17.3761,0 0,10.5853 -18.0571,0.087 m 166.111405,-5e-4 0,-10.672 -112.6213,0 0,10.5852 -18.056905,0.087 m -45.8315,10.3837 c -1.9007,0 -3.4414,-1.5407 -3.4414,-3.4413 0,-1.9007 1.5407,-3.4414 3.4414,-3.4414 1.9006,0 3.4413,1.5407 3.4413,3.4414 0,1.9006 -1.5407,3.4413 -3.4413,3.4413 z m 0,74.4847 c -1.9007,0 -3.4414,-1.5407 -3.4414,-3.4414 0,-1.9006 1.5407,-3.4413 3.4414,-3.4413 1.9006,0 3.4413,1.5407 3.4413,3.4413 0,1.9007 -1.5407,3.4414 -3.4413,3.4414 z m 44.2913,-74.4847 c -1.9006,0 -3.4414,-1.5407 -3.4414,-3.4413 0,-1.9007 1.5408,-3.4414 3.4414,-3.4414 1.9006,0 3.4414,1.5407 3.4414,3.4414 0,1.9006 -1.5408,3.4413 -3.4414,3.4413 z m 0,74.4847 c -1.9006,0 -3.4414,-1.5407 -3.4414,-3.4414 0,-1.9006 1.5408,-3.4413 3.4414,-3.4413 1.9006,0 3.4414,1.5407 3.4414,3.4413 0,1.9007 -1.5408,3.4414 -3.4414,3.4414 z"
       inkscape:connector-curvature="0" />
    <path
       id="path4128-0"
       style="fill:none;stroke:#ff0000;stroke-width:0.35432771;stroke-linecap:butt;stroke-linejoin:miter;stroke-miterlimit:4;stroke-opacity:1;stroke-dasharray:none"
       d="m 214.41277,832.19589 0,-10.672 -112.6213,0 0,10.5852 -18.057003,0.087 m 0,-10e-5 0,-10.6721 -17.376,0 0,10.5853 -18.0571,0.087 m 0,-2e-4 0,-10.672 -17.376,0 0,10.5852 -10.6369,-0.026 0,44.1884 0,44.288 10.6369,-0.1258 m 0,-2e-4 0,10.5852 17.3761,0 0,-10.672 18.057,0.087 m 0,0 0,10.5853 17.3755,0 0,-10.672 18.054403,0.091 m 0,-2e-4 0,10.5852 112.6213,0 0,-10.672 0,-88.1549 m -176.509603,10.384 c -1.9007,0 -3.4414,-1.5408 -3.4414,-3.4414 0,-1.9006 1.5407,-3.4414 3.4414,-3.4414 1.9006,0 3.4413,1.5408 3.4413,3.4414 0,1.9006 -1.5407,3.4414 -3.4413,3.4414 z m 0,74.4846 c -1.9007,0 -3.4414,-1.5407 -3.4414,-3.4413 0,-1.9007 1.5407,-3.4414 3.4414,-3.4414 1.9006,0 3.4413,1.5407 3.4413,3.4414 0,1.9006 -1.5407,3.4413 -3.4413,3.4413 z m 44.2912,-74.4846 c -1.9005,0 -3.4413,-1.5408 -3.4413,-3.4414 0,-1.9006 1.5408,-3.4414 3.4413,-3.4414 1.9007,0 3.4414,1.5408 3.4414,3.4414 0,1.9006 -1.5407,3.4414 -3.4414,3.4414 z m 0,74.4846 c -1.9005,0 -3.4413,-1.5407 -3.4413,-3.4413 0,-1.9007 1.5408,-3.4414 3.4413,-3.4414 1.9007,0 3.4414,1.5407 3.4414,3.4414 0,1.9006 -1.5407,3.4413 -3.4414,3.4413 z m 132.477803,-61.7762 0,42.1098 -177.096303,0 0,-42.1098 z"
       inkscape:connector-curvature="0" />
    <path
       style="fill:none;stroke:#ff0000;stroke-width:0.35433072;stroke-linecap:butt;stroke-linejoin:miter;stroke-miterlimit:4;stroke-opacity:1;stroke-dasharray:none"
       d="m 264.70346,1026.615 -46.21449,0 0,-11.1263 11.00382,0 0,-88.89347 -10.48032,0 0,-10.4804 46.06444,0 0,10.5801 -21.16459,0 0,88.66077 20.79115,0 z"
       id="path4148"
       inkscape:connector-curvature="0"
       sodipodi:nodetypes="ccccccccccccc" />
    <path
       id="rect3239"
       style="fill:none;stroke:#ff0000;stroke-width:0.35433072;stroke-linecap:butt;stroke-linejoin:miter;stroke-miterlimit:4;stroke-opacity:1"
       d="m 213.83234,972.72381 0,32.07239 -111.6219,0 0,-32.07239 z m -112.5247,60.19239 0,10.5853 112.6212,0 0,-10.6721 0,-88.15489 m -148.054199,88.23749 0,10.5852 17.3756,0 0,-10.672 18.054399,0.091 m -70.863099,0 0,10.5853 17.3761,0 0,-10.6721 18.057,0.087 m -18.0571,-88.23799 0,-10.67201 -17.376,0 0,10.5853 -10.6369,-0.026 0,44.1884 0,44.288 10.6369,-0.1259 m 52.8092,-88.238 0,-10.672 -17.3761,0 0,10.5852 -18.0571,0.087 m 166.111499,-4e-4 0,-10.6721 -112.6213,0 0,10.5853 -18.056999,0.087 m -5.1587,73.041 c -15.9992,0 -28.9691,-12.97 -28.9691,-28.9692 0,-15.9992 12.9699,-28.9691 28.9691,-28.9691 15.9992,0 28.969099,12.9699 28.969099,28.9691 0,15.9992 -12.969899,28.9692 -28.969099,28.9692 z m -40.6728,-62.6573 c -1.9007,0 -3.4414,-1.5407 -3.4414,-3.4414 0,-1.9006 1.5407,-3.4413 3.4414,-3.4413 1.9006,0 3.4413,1.5407 3.4413,3.4413 0,1.9007 -1.5407,3.4414 -3.4413,3.4414 z m 0,74.4847 c -1.9007,0 -3.4414,-1.5407 -3.4414,-3.4414 0,-1.9006 1.5407,-3.4413 3.4414,-3.4413 1.9006,0 3.4413,1.5407 3.4413,3.4413 0,1.9007 -1.5407,3.4414 -3.4413,3.4414 z m 44.2913,-74.4847 c -1.9006,0 -3.4414,-1.5407 -3.4414,-3.4414 0,-1.9006 1.5408,-3.4413 3.4414,-3.4413 1.9006,0 3.4414,1.5407 3.4414,3.4413 0,1.9007 -1.5408,3.4414 -3.4414,3.4414 z m 0,74.4847 c -1.9006,0 -3.4414,-1.5407 -3.4414,-3.4414 0,-1.9006 1.5408,-3.4413 3.4414,-3.4413 1.9006,0 3.4414,1.5407 3.4414,3.4413 0,1.9007 -1.5408,3.4414 -3.4414,3.4414 z"
       inkscape:connector-curvature="0" />
    <path
       id="path3023-5"
       style="fill:none;stroke:#ff0000;stroke-width:0.35433072;stroke-miterlimit:4;stroke-opacity:1"
       d="m 210.9866,591.12343 -45.05912,0 0,116.45696 180.23648,-10e-6 0,-116.45695 -45.05912,0 z m 99.90798,81.18757 -109.6977,0 0,-45.91817 109.6977,0 z m -158.06073,-5.00007 0,-20.1853 10.42943,-9.8e-4 0,-88.22757 -10.42943,1.9e-4 0,-16.21389 0,-69.44708 -106.525992,0 -6.7e-4,85.66097 -10.62992,0 0,88.21417 10.62992,0 0.002,37.91476 106.525992,0 z m 221.97873,-80.53857 10.5259,0 0,88.47866 -10.5259,0 z m -141.43719,-151.31597 1e-5,10.52596 -88.4787,0 0,-10.52595 z m 86.86669,1.32058 -306.279852,-1.42858 -10e-6,36.0142 334.960862,0 0,241.33889 36.4708,0.001 0,-213.6312 0,-62.29431 z m 54.23172,-129.91468 10.52594,0 0,88.47866 -10.52595,0 z m -141.43715,-151.31597 1e-5,10.52596 -88.4787,0 0,-10.52595 z M 410.00159,52.923563 487.56957,130.49155 455.10052,162.96059 377.53254,85.392603 z M 319.90335,156.8669 13.623488,155.43832 l -10e-6,68.17396 0,209.17917 300.550772,0 70.8809,10e-4 0,-213.63124 m 0,3.3e-4 38.18376,-38.18375 31.86161,31.86161 82.3475,-82.34752 L 410.00159,3.0454528 327.65409,85.392963 359.5157,117.25456 319.90335,156.8669 m -195.47982,-12.68422 20.1853,0 9.8e-4,10.42943 88.22756,0 -1.9e-4,-10.42943 16.21389,0 69.44708,0 0,-106.525997 -85.66097,-6.7e-4 0,-10.62992 -88.21417,0 0,10.62992 -131.205212,6.7e-4 0,106.525997 z m 86.56306,328.24783 -45.05912,0 0,116.45696 180.23647,-10e-6 0,-116.45695 -45.05912,0 z m 99.90797,81.18757 -109.69769,0 0,-45.91817 109.69769,0 z"
       inkscape:connector-curvature="0" />
    <path
       id="path3023-5-6"
       style="fill:none;stroke:#ff0000;stroke-width:0.35433072;stroke-miterlimit:4;stroke-opacity:1"
       d="m 571.54289,344.34099 45.05912,0 0,-116.45696 -180.23648,1e-5 0,116.45695 45.05912,0 z m -99.90798,-81.18757 109.6977,0 0,45.91817 -109.6977,0 z m 158.06073,5.00007 0,20.1853 -10.42943,9.8e-4 0,88.22757 10.42943,-1.9e-4 0,16.21389 0,69.44708 106.526,0 6.7e-4,-85.66097 10.62992,0 0,-88.21417 -10.62992,0 -0.002,-37.91476 -106.526,0 z m -221.97873,80.53857 -10.5259,0 0,-88.47866 10.5259,0 z m 141.43719,151.31597 -10e-6,-10.52597 88.4787,0 0,10.52595 z m -86.86669,-1.32057 306.27986,1.42858 10e-6,-36.0142 -334.96087,0 0,-241.33889 -36.4708,-10e-4 0,213.6312 0,62.29431 z m -54.23172,129.91467 -10.52594,0 0,-88.47866 10.52595,0 z m 141.43715,151.31597 -10e-6,-10.52596 88.4787,0 0,10.52596 z m -176.96494,102.62275 -77.56798,-77.56798 32.46905,-32.46904 77.56798,77.56799 z m 90.09824,-103.94332 306.27987,1.42858 10e-6,-68.17397 0,-209.17917 -300.55078,0 -70.8809,-0.001 0,213.63125 m 0,-3.4e-4 -38.18376,38.18375 -31.86161,-31.86161 -82.3475,82.34752 127.44643,127.44643 82.3475,-82.34751 -31.86162,-31.86159 39.61235,-39.61234 m 195.47982,12.68422 -20.18529,0 -9.9e-4,-10.42944 -88.22756,0 1.9e-4,10.42944 -16.21389,0 -69.44707,0 0,106.52598 85.66097,6.8e-4 0,10.62991 88.21416,0 0,-10.62991 131.20522,-6.8e-4 0,-106.52598 z m -86.56306,-328.24784 45.05913,0 0,-116.45695 -180.23648,0 0,116.45695 45.05913,0 z m -99.90797,-81.18756 109.69769,0 0,45.91817 -109.69769,0 z"
       inkscape:connector-curvature="0" />
    <path
       id="path3023-5-2"
       style="fill:none;stroke:#ff0000;stroke-width:0.35433072;stroke-miterlimit:4;stroke-opacity:1"
       d="m 969.9499,588.60636 -45.05912,0 0,116.45696 180.23652,-10e-6 0,-116.45695 -45.0591,0 z m 99.908,81.18757 -109.69772,0 0,-45.91817 109.69772,0 z m -158.06075,-5.00007 0,-20.1853 10.42943,-9.8e-4 0,-88.22757 -10.42943,1.9e-4 0,-16.21389 0,-69.44708 -106.52599,0 -6.7e-4,85.66097 -10.62992,0 0,88.21417 10.62992,0 0.002,37.91476 106.52599,0 z m 221.97875,-80.53857 10.5259,0 0,88.47866 -10.5259,0 z m -141.43721,-151.31597 10e-6,10.52596 -88.4787,0 0,-10.52595 z m 86.86671,1.32058 -306.27987,-1.42858 -10e-6,36.0142 334.96088,0 0,241.33889 36.4708,0.001 0,-213.6312 0,-62.29431 z m 54.2317,-129.91468 10.526,0 0,88.47866 -10.526,0 z m -141.43715,-151.31597 10e-6,10.52596 -88.4787,0 0,-10.52595 z m 176.96495,-102.622749 77.568,77.567979 -32.469,32.46904 -77.568,-77.567979 z m -90.0982,103.943329 -306.27991,-1.42858 -10e-6,68.17396 0,209.17917 300.55082,0 70.8809,10e-4 0,-213.63124 m 0,3.3e-4 38.1838,-38.18375 31.8616,31.86161 82.3475,-82.34752 -127.4465,-127.44642002 -82.3475,82.34751102 31.8616,31.861589 -39.6123,39.61234 m -195.47987,-12.68422 20.1853,0 9.8e-4,10.42943 88.22756,0 -1.9e-4,-10.42943 16.21392,0 69.4471,0 0,-106.525989 -85.66102,-6.7e-4 0,-10.62992 -88.21417,0 0,10.62992 -131.20521,6.7e-4 0,106.525989 z m 86.56306,328.24783 -45.05912,0 0,116.45696 180.23653,-10e-6 0,-116.45695 -45.0591,0 z m 99.90801,81.18757 -109.69773,0 0,-45.91817 109.69773,0 z"
       inkscape:connector-curvature="0" />
    <path
       id="path3023-5-9"
       style="fill:none;stroke:#ff0000;stroke-width:0.35433072;stroke-miterlimit:4;stroke-opacity:1"
       d="m 1333.1964,361.07117 45.0591,0 0,-116.4569 -180.2365,0 0,116.4569 45.0591,0 z m -99.908,-81.1875 109.6977,0 0,45.9181 -109.6977,0 z m 158.0607,5 0,20.1853 -10.4294,0.001 0,88.2276 10.4294,-2e-4 0,16.2139 0,69.4471 106.526,0 7e-4,-85.661 10.6299,0 0,-88.2142 -10.6299,0 0,-37.9147 -106.526,0 z m -221.9787,80.5386 -10.5259,0 0,-88.4787 10.5259,0 z m 141.4372,151.316 0,-10.526 88.4787,0 0,10.526 z m -86.8667,-1.3206 306.2799,1.4286 0,-36.0142 -334.9609,0 0,-241.3389 -36.4708,-0.001 0,213.6312 0,62.2943 z m -54.2317,129.9147 -10.526,0 0,-88.4787 10.526,0 z m 141.4371,151.3159 0,-10.5259 88.4787,0 0,10.5259 z m -176.9649,102.6228 -77.568,-77.568 32.4691,-32.469 77.5679,77.568 z m 90.0982,-103.9433 306.2799,1.4285 0,-68.1739 0,-209.1792 -300.5508,0 -70.8809,-0.001 0,213.6313 m 0,-4e-4 -38.1837,38.1838 -31.8616,-31.8616 -82.3475,82.3475 127.4464,127.4464 82.3475,-82.3475 -31.8616,-31.8616 39.6123,-39.6123 m 195.4798,12.6842 -20.1853,0 -9e-4,-10.4294 -88.2276,0 2e-4,10.4294 -16.2139,0 -69.4471,0 0,106.526 85.661,6e-4 0,10.63 88.2142,0 0,-10.63 131.2052,-6e-4 0,-106.526 z m -86.563,-328.2478 45.0591,0 0,-116.457 -180.2365,0 0,116.457 45.0592,0 z m -99.908,-81.1876 109.6977,0 0,45.9182 -109.6977,0 z"
       inkscape:connector-curvature="0" />
    <path
       style="fill:none;stroke:#ff0000;stroke-width:0.35432771;stroke-linecap:butt;stroke-linejoin:miter;stroke-miterlimit:4;stroke-opacity:1;stroke-dasharray:none"
       d="m 1003.5507,901.93047 0,-17.6785 21.071,0 0,-17.6786 -21.4281,0 0,-17.6787 21.4281,0 0,-17.8571 -21.4281,0 0,-113.1024 -13.82239,0 0,113.147 -10.6415,0 0,17.634 10.5355,0 0,17.7679 -10.6248,0 0,17.7679 10.6248,0 0,17.8571 z"
       id="path4075-1"
       inkscape:connector-curvature="0" />
    <path
       style="fill:none;stroke:#ff0000;stroke-width:0.35432771;stroke-linecap:butt;stroke-linejoin:miter;stroke-miterlimit:4;stroke-opacity:1;stroke-dasharray:none"
       d="m 1027.0044,1027.8363 0,-17.6786 -21.0712,0 0,-17.67849 21.4283,0 0,-17.6787 -21.4283,0 0,-17.8571 21.4283,0 0,-113.10234 13.8223,0 0,113.14704 10.6415,0 0,17.6338 -10.5355,0 0,17.768 10.6248,0 0,17.76779 -10.6248,0 0,17.8572 z"
       id="path4073-2"
       inkscape:connector-curvature="0" />
    <path
       id="path4053-7"
       style="fill:none;stroke:#ff0000;stroke-width:0.35432771;stroke-linecap:butt;stroke-linejoin:miter;stroke-miterlimit:4;stroke-opacity:1;stroke-dasharray:none"
       d="m 861.51693,807.42812 0,10.5853 112.62128,0 0,-10.672 0,-88.1549 m -148.05418,88.2374 0,10.5853 17.3755,0 0,-10.6721 18.0544,0.091 m -70.863,0 0,10.5853 17.3761,0 0,-10.672 18.057,0.087 m -18.0571,-88.238 0,-10.6721 -17.376,0 0,10.58529 -10.6369,-0.026 0,44.1884 0,44.288 10.6369,-0.1259 m 52.8092,-88.238 0,-10.672 -17.3761,0 0,10.5853 -18.0571,0.087 m 166.11138,-5e-4 0,-10.672 -112.62128,0 0,10.5852 -18.0569,0.087 m -45.8315,10.3837 c -1.9007,0 -3.4414,-1.5407 -3.4414,-3.4413 0,-1.9007 1.5407,-3.4414 3.4414,-3.4414 1.9006,0 3.4413,1.5407 3.4413,3.4414 0,1.9006 -1.5407,3.4413 -3.4413,3.4413 z m 0,74.4847 c -1.9007,0 -3.4414,-1.5407 -3.4414,-3.4414 0,-1.9006 1.5407,-3.4413 3.4414,-3.4413 1.9006,0 3.4413,1.5407 3.4413,3.4413 0,1.9007 -1.5407,3.4414 -3.4413,3.4414 z m 44.2913,-74.4847 c -1.9006,0 -3.4414,-1.5407 -3.4414,-3.4413 0,-1.9007 1.5408,-3.4414 3.4414,-3.4414 1.9006,0 3.4414,1.5407 3.4414,3.4414 0,1.9006 -1.5408,3.4413 -3.4414,3.4413 z m 0,74.4847 c -1.9006,0 -3.4414,-1.5407 -3.4414,-3.4414 0,-1.9006 1.5408,-3.4413 3.4414,-3.4413 1.9006,0 3.4414,1.5407 3.4414,3.4413 0,1.9007 -1.5408,3.4414 -3.4414,3.4414 z"
       inkscape:connector-curvature="0" />
    <path
       id="path4128-0-0"
       style="fill:none;stroke:#ff0000;stroke-width:0.35432771;stroke-linecap:butt;stroke-linejoin:miter;stroke-miterlimit:4;stroke-opacity:1;stroke-dasharray:none"
       d="m 974.12201,830.61507 0,-10.672 -112.62127,0 0,10.5852 -18.057,0.087 m 0,-10e-5 0,-10.6721 -17.376,0 0,10.5853 -18.0571,0.087 m 0,-2e-4 0,-10.672 -17.376,0 0,10.5852 -10.6369,-0.026 0,44.1884 0,44.288 10.6369,-0.1258 m 0,-2e-4 0,10.5852 17.3761,0 0,-10.672 18.057,0.087 m 0,0 0,10.5853 17.3755,0 0,-10.672 18.0544,0.091 m 0,-2e-4 0,10.5852 112.62127,0 0,-10.672 0,-88.1549 m -176.50957,10.384 c -1.9007,0 -3.4414,-1.5408 -3.4414,-3.4414 0,-1.9006 1.5407,-3.4414 3.4414,-3.4414 1.9006,0 3.4413,1.5408 3.4413,3.4414 0,1.9006 -1.5407,3.4414 -3.4413,3.4414 z m 0,74.4846 c -1.9007,0 -3.4414,-1.5407 -3.4414,-3.4413 0,-1.9007 1.5407,-3.4414 3.4414,-3.4414 1.9006,0 3.4413,1.5407 3.4413,3.4414 0,1.9006 -1.5407,3.4413 -3.4413,3.4413 z m 44.2912,-74.4846 c -1.9005,0 -3.4413,-1.5408 -3.4413,-3.4414 0,-1.9006 1.5408,-3.4414 3.4413,-3.4414 1.9007,0 3.4414,1.5408 3.4414,3.4414 0,1.9006 -1.5407,3.4414 -3.4414,3.4414 z m 0,74.4846 c -1.9005,0 -3.4413,-1.5407 -3.4413,-3.4413 0,-1.9007 1.5408,-3.4414 3.4413,-3.4414 1.9007,0 3.4414,1.5407 3.4414,3.4414 0,1.9006 -1.5407,3.4413 -3.4414,3.4413 z m 132.47777,-61.7762 0,42.1098 -177.09627,0 0,-42.1098 z"
       inkscape:connector-curvature="0" />
    <path
       style="fill:none;stroke:#ff0000;stroke-width:0.35433072;stroke-linecap:butt;stroke-linejoin:miter;stroke-miterlimit:4;stroke-opacity:1;stroke-dasharray:none"
       d="m 1024.4127,1025.0342 -46.21449,0 0,-11.1263 11.0039,0 0,-88.89349 -10.4804,0 0,-10.4804 46.06449,0 0,10.5801 -21.1646,0 0,88.66079 20.7911,0 z"
       id="path4148-9"
       inkscape:connector-curvature="0"
       sodipodi:nodetypes="ccccccccccccc" />
    <path
       id="rect3239-3"
       style="fill:none;stroke:#ff0000;stroke-width:0.35433072;stroke-linecap:butt;stroke-linejoin:miter;stroke-miterlimit:4;stroke-opacity:1"
       d="m 973.54161,971.14301 0,32.07239 -111.6219,0 0,-32.07239 z m -112.5247,60.19239 0,10.5853 112.6212,0 0,-10.6721 0,-88.15491 m -148.05419,88.23751 0,10.5852 17.3756,0 0,-10.672 18.05439,0.091 m -70.86309,0 0,10.5853 17.3761,0 0,-10.6721 18.057,0.087 m -18.0571,-88.23801 0,-10.67201 -17.376,0 0,10.5853 -10.6369,-0.026 0,44.18843 0,44.28799 10.6369,-0.1259 m 52.8092,-88.23802 0,-10.672 -17.3761,0 0,10.5852 -18.0571,0.087 m 166.11149,-4e-4 0,-10.6721 -112.6213,0 0,10.5853 -18.05699,0.087 m -5.1587,73.04102 c -15.9992,0 -28.9691,-12.97 -28.9691,-28.96919 0,-15.9992 12.9699,-28.9691 28.9691,-28.9691 15.9992,0 28.96909,12.9699 28.96909,28.9691 0,15.99919 -12.96989,28.96919 -28.96909,28.96919 z m -40.6728,-62.65729 c -1.9007,0 -3.4414,-1.5407 -3.4414,-3.4414 0,-1.9006 1.5407,-3.4413 3.4414,-3.4413 1.9006,0 3.4413,1.5407 3.4413,3.4413 0,1.9007 -1.5407,3.4414 -3.4413,3.4414 z m 0,74.48469 c -1.9007,0 -3.4414,-1.5407 -3.4414,-3.4414 0,-1.9006 1.5407,-3.4413 3.4414,-3.4413 1.9006,0 3.4413,1.5407 3.4413,3.4413 0,1.9007 -1.5407,3.4414 -3.4413,3.4414 z m 44.2913,-74.48469 c -1.9006,0 -3.4414,-1.5407 -3.4414,-3.4414 0,-1.9006 1.5408,-3.4413 3.4414,-3.4413 1.9006,0 3.4414,1.5407 3.4414,3.4413 0,1.9007 -1.5408,3.4414 -3.4414,3.4414 z m 0,74.48469 c -1.9006,0 -3.4414,-1.5407 -3.4414,-3.4414 0,-1.9006 1.5408,-3.4413 3.4414,-3.4413 1.9006,0 3.4414,1.5407 3.4414,3.4413 0,1.9007 -1.5408,3.4414 -3.4414,3.4414 z"
       inkscape:connector-curvature="0" />
    <path
       id="path4248"
       style="fill:none;stroke:#ff0000;stroke-width:0.35433072;stroke-linecap:butt;stroke-linejoin:miter;stroke-miterlimit:4;stroke-opacity:1"
       d="m 749.30557,110.19098 c 0,-1.9006 -1.5407,-3.4414 -3.4414,-3.4414 -1.9006,0 -3.4413,1.5408 -3.4413,3.4414 0,1.9006 1.5407,3.4414 3.4413,3.4414 1.9007,0 3.4414,-1.5408 3.4414,-3.4414 z m -74.4847,0 c 0,-1.9006 -1.5407,-3.4414 -3.4414,-3.4414 -1.9006,0 -3.4413,1.5408 -3.4413,3.4414 0,1.9006 1.5407,3.4414 3.4413,3.4414 1.9007,0 3.4414,-1.5408 3.4414,-3.4414 z m 74.4847,-44.291305 c 0,-1.9007 -1.5407,-3.4414 -3.4414,-3.4414 -1.9006,0 -3.4413,1.5407 -3.4413,3.4414 0,1.9006 1.5407,3.4413 3.4413,3.4413 1.9007,0 3.4414,-1.5407 3.4414,-3.4413 z m -74.4847,0 c 0,-1.9007 -1.5407,-3.4414 -3.4414,-3.4414 -1.9006,0 -3.4413,1.5407 -3.4413,3.4414 0,1.9006 1.5407,3.4413 3.4413,3.4413 1.9007,0 3.4414,-1.5407 3.4414,-3.4413 z m 62.6573,40.672805 c 0,-15.999205 -12.97,-28.969105 -28.9692,-28.969105 -15.9992,0 -28.9691,12.9699 -28.9691,28.969105 0,15.9992 12.9699,28.9691 28.9691,28.9691 15.9992,0 28.9692,-12.9699 28.9692,-28.9691 z m -73.0412,135.83699 -10.6721,0 0,-112.62129 10.5853,0 0.087,-18.057 m 0,0 -10.672,0 0,-17.376105 10.5852,0 0.087,-18.0571 m 0,0 -10.672,0 0,-17.376 10.5853,0 -0.026,-10.6369 44.1884,0 44.288,0 -0.1259,10.6369 m 0,0 10.5853,0 0,17.3761 -10.6721,0 0.087,18.057 m 0,0 10.5852,0 0,17.375605 -10.672,0 0.091,18.0544 m 0,0.003 10.5853,0 0,112.62119 -10.6721,0 -88.1549,0 m 28.0493,-0.0965 32.0724,0 0,-111.62189 -32.0724,0 z"
       inkscape:connector-curvature="0" />
    <path
       style="fill:none;stroke:#ff0000;stroke-width:0.35433072;stroke-linecap:butt;stroke-linejoin:miter;stroke-miterlimit:4;stroke-opacity:1"
       d="m 1279.6319,188.37051 46.2145,0 0,-11.1263 -11.0038,0 0,-88.893396 10.4803,0 0,-10.4804 -46.0644,0 0,10.5801 21.1646,0 0,88.660696 -20.7912,0 z"
       id="path4246"
       inkscape:connector-curvature="0" />
    <path
       id="path4224"
       style="fill:none;stroke:#ff0000;stroke-width:0.35433072;stroke-linecap:butt;stroke-linejoin:miter;stroke-miterlimit:4;stroke-opacity:1"
       d="m 576.47614,224.57805 42.1098,0 0,-177.096293 -42.1098,0 z m 61.7762,-132.477803 c 0,-1.90049 -1.5407,-3.44129 -3.4413,-3.44129 -1.9007,0 -3.4414,1.5408 -3.4414,3.44129 0,1.9007 1.5407,3.4414 3.4414,3.4414 1.9006,0 3.4413,-1.5407 3.4413,-3.4414 z m -74.4846,0 c 0,-1.90049 -1.5408,-3.44129 -3.4414,-3.44129 -1.9006,0 -3.4414,1.5408 -3.4414,3.44129 0,1.9007 1.5408,3.4414 3.4414,3.4414 1.9006,0 3.4414,-1.5407 3.4414,-3.4414 z m 74.4846,-44.2912 c 0,-1.9007 -1.5407,-3.4414 -3.4413,-3.4414 -1.9007,0 -3.4414,1.5407 -3.4414,3.4414 0,1.9006 1.5407,3.4413 3.4414,3.4413 1.9006,0 3.4413,-1.5407 3.4413,-3.4413 z m -74.4846,0 c 0,-1.9007 -1.5408,-3.4414 -3.4414,-3.4414 -1.9006,0 -3.4414,1.5407 -3.4414,3.4414 0,1.9006 1.5408,3.4413 3.4414,3.4413 1.9006,0 3.4414,-1.5407 3.4414,-3.4413 z m 77.8577,63.888303 10.5852,0 0,112.62129 -10.672,0 -88.1549,0 m 88.2376,-148.051193 10.5853,0 0,17.3755 -10.672,0 0.091,18.054403 m 0,-70.863004 10.5852,0 0,17.376101 -10.672,0 0.087,18.057 m -88.2378,-18.0571 -10.672,0 0,-17.376001 10.5852,0 -0.026,-10.6369 44.1884,0 44.288,0 -0.1258,10.6369 m -88.2378,52.809101 -10.6721,0 0,-17.376 10.5853,0 0.087,-18.0571 m -3e-4,166.111393 -10.672,0 0,-112.62129 10.5852,0 0.087,-18.057003"
       inkscape:connector-curvature="0" />
    <path
       id="path4204"
       style="fill:none;stroke:#ff0000;stroke-width:0.35433072;stroke-linecap:butt;stroke-linejoin:miter;stroke-miterlimit:4;stroke-opacity:1"
       d="m 1425.3984,80.691085 c 0,-1.9006 -1.5407,-3.4414 -3.4414,-3.4414 -1.9006,0 -3.4413,1.5408 -3.4413,3.4414 0,1.9006 1.5407,3.4414 3.4413,3.4414 1.9007,0 3.4414,-1.5408 3.4414,-3.4414 z m -74.4847,0 c 0,-1.9006 -1.5407,-3.4414 -3.4413,-3.4414 -1.9007,0 -3.4414,1.5408 -3.4414,3.4414 0,1.9006 1.5407,3.4414 3.4414,3.4414 1.9006,0 3.4413,-1.5408 3.4413,-3.4414 z m 74.4847,-44.2913 c 0,-1.9007 -1.5407,-3.4414 -3.4414,-3.4414 -1.9006,0 -3.4413,1.5407 -3.4413,3.4414 0,1.90059 1.5407,3.44129 3.4413,3.44129 1.9007,0 3.4414,-1.5407 3.4414,-3.44129 z m -74.4847,0 c 0,-1.9007 -1.5407,-3.4414 -3.4413,-3.4414 -1.9007,0 -3.4414,1.5407 -3.4414,3.4414 0,1.90059 1.5407,3.44129 3.4414,3.44129 1.9006,0 3.4413,-1.5407 3.4413,-3.44129 z m -10.3839,176.509695 -10.672,0 0,-112.62129 10.5852,0 0.087,-18.056905 m 0,0 -10.672,0 0,-17.3761 10.5853,0 0.087,-18.0571 m 0,0 -10.6721,0 0,-17.376 10.5853,0 -0.026,-10.6369 44.1884,0 44.288,0 -0.1259,10.6369 m 0,0 10.5853,0 0,17.3761 -10.672,0 0.087,18.057 m 0,0 10.5853,0 0,17.3755 -10.6721,0 0.091,18.054405 m 0,0.003 10.5853,0 0,112.62129 -10.672,0 -88.1549,0"
       inkscape:connector-curvature="0" />
    <path
       style="fill:none;stroke:#ff0000;stroke-width:0.35433072;stroke-linecap:butt;stroke-linejoin:miter;stroke-miterlimit:4;stroke-opacity:1"
       d="m 1460.6046,242.47172 -17.6786,0 0,21.07121 -17.6785,0 0,-21.42831 -17.6786,0 0,21.42831 -17.8572,0 0,-21.42831 -113.1023,0 0,-13.8223 113.147,0 0,-10.64149 17.6339,0 0,10.53549 17.7679,0 0,-10.6248 17.7678,0 0,10.6248 17.8572,0 z"
       id="path4202"
       inkscape:connector-curvature="0" />
    <path
       style="fill:none;stroke:#ff0000;stroke-width:0.35433072;stroke-linecap:butt;stroke-linejoin:miter;stroke-miterlimit:4;stroke-opacity:1"
       d="m 736.12741,25.179024 -17.6785,0 0,21.07099 -17.6786,0 0,-21.4281 -17.6787,0 0,21.4281 -17.8571,0 0,-21.4281 -113.1024,0 0,-13.8224 113.147,0 0,-10.64149982 17.634,0 0,10.53549982 17.7679,0 0,-10.62479982 17.7679,0 0,10.62479982 17.8571,0 z"
       id="rect3239-1"
       inkscape:connector-curvature="0" />
    <path
       style="fill:none;stroke:#ff0000;stroke-width:0.35432771;stroke-linecap:butt;stroke-linejoin:miter;stroke-miterlimit:4;stroke-opacity:1;stroke-dasharray:none"
       d="m 1056.6889,990.29609 17.6785,0 0,-21.071 17.6786,0 0,21.4281 17.6787,0 0,-21.4281 17.8571,0 0,21.4281 113.1024,0 0,13.82241 -113.147,0 0,10.6415 -17.634,0 0,-10.5355 -17.7679,0 0,10.6248 -17.7679,0 0,-10.6248 -17.8571,0 z"
       id="path4075-8"
       inkscape:connector-curvature="0" />
    <path
       style="fill:none;stroke:#ff0000;stroke-width:0.35432771;stroke-linecap:butt;stroke-linejoin:miter;stroke-miterlimit:4;stroke-opacity:1;stroke-dasharray:none"
       d="m 1239.6106,968.34489 -17.6786,0 0,21.07121 -17.6785,0 0,-21.4283 -17.6786,0 0,21.4283 -17.8572,0 0,-21.4283 -113.1023,0 0,-13.82231 113.147,0 0,-10.64149 17.6339,0 0,10.5355 17.7679,0 0,-10.62481 17.7678,0 0,10.62481 17.8572,0 z"
       id="path4073-7"
       inkscape:connector-curvature="0" />
    <path
       id="path4053-9"
       style="fill:none;stroke:#ff0000;stroke-width:0.35432771;stroke-linecap:butt;stroke-linejoin:miter;stroke-miterlimit:4;stroke-opacity:1;stroke-dasharray:none"
       d="m 1325.8227,1026.3852 0,10.5853 112.6213,0 0,-10.672 0,-88.15485 m -148.0542,88.23735 0,10.5853 17.3755,0 0,-10.6721 18.0544,0.091 m -70.863,0 0,10.5853 17.3761,0 0,-10.672 18.057,0.087 m -18.0571,-88.23795 0,-10.6721 -17.376,0 0,10.58529 -10.6369,-0.026 0,44.1884 0,44.28796 10.6369,-0.1259 m 52.8092,-88.23796 0,-10.672 -17.3761,0 0,10.5853 -18.0571,0.087 m 166.1114,-5e-4 0,-10.672 -112.6213,0 0,10.5852 -18.0569,0.087 m -45.8315,10.3837 c -1.9007,0 -3.4414,-1.5407 -3.4414,-3.4413 0,-1.9007 1.5407,-3.4414 3.4414,-3.4414 1.9006,0 3.4413,1.5407 3.4413,3.4414 0,1.9006 -1.5407,3.4413 -3.4413,3.4413 z m 0,74.48466 c -1.9007,0 -3.4414,-1.5407 -3.4414,-3.4414 0,-1.9006 1.5407,-3.4413 3.4414,-3.4413 1.9006,0 3.4413,1.5407 3.4413,3.4413 0,1.9007 -1.5407,3.4414 -3.4413,3.4414 z m 44.2913,-74.48466 c -1.9006,0 -3.4414,-1.5407 -3.4414,-3.4413 0,-1.9007 1.5408,-3.4414 3.4414,-3.4414 1.9006,0 3.4414,1.5407 3.4414,3.4414 0,1.9006 -1.5408,3.4413 -3.4414,3.4413 z m 0,74.48466 c -1.9006,0 -3.4414,-1.5407 -3.4414,-3.4414 0,-1.9006 1.5408,-3.4413 3.4414,-3.4413 1.9006,0 3.4414,1.5407 3.4414,3.4413 0,1.9007 -1.5408,3.4414 -3.4414,3.4414 z"
       inkscape:connector-curvature="0" />
    <path
       id="path4128-0-2"
       style="fill:none;stroke:#ff0000;stroke-width:0.35432771;stroke-linecap:butt;stroke-linejoin:miter;stroke-miterlimit:4;stroke-opacity:1;stroke-dasharray:none"
       d="m 693.01296,937.06168 0,-10.672 -112.6213,0 0,10.5852 -18.057,0.087 m 0,-10e-5 0,-10.6721 -17.376,0 0,10.5853 -18.0571,0.087 m 0,-2e-4 0,-10.672 -17.376,0 0,10.5852 -10.6369,-0.026 0,44.1884 0,44.28802 10.6369,-0.1258 m 0,-2e-4 0,10.5852 17.3761,0 0,-10.672 18.057,0.087 m 0,0 0,10.5853 17.3755,0 0,-10.672 18.0544,0.091 m 0,-2e-4 0,10.5852 112.6213,0 0,-10.672 0,-88.15492 m -176.5096,10.384 c -1.9007,0 -3.4414,-1.5408 -3.4414,-3.4414 0,-1.9006 1.5407,-3.4414 3.4414,-3.4414 1.9006,0 3.4413,1.5408 3.4413,3.4414 0,1.9006 -1.5407,3.4414 -3.4413,3.4414 z m 0,74.48462 c -1.9007,0 -3.4414,-1.5407 -3.4414,-3.4413 0,-1.9007 1.5407,-3.4414 3.4414,-3.4414 1.9006,0 3.4413,1.5407 3.4413,3.4414 0,1.9006 -1.5407,3.4413 -3.4413,3.4413 z m 44.2912,-74.48462 c -1.9005,0 -3.4413,-1.5408 -3.4413,-3.4414 0,-1.9006 1.5408,-3.4414 3.4413,-3.4414 1.9007,0 3.4414,1.5408 3.4414,3.4414 0,1.9006 -1.5407,3.4414 -3.4414,3.4414 z m 0,74.48462 c -1.9005,0 -3.4413,-1.5407 -3.4413,-3.4413 0,-1.9007 1.5408,-3.4414 3.4413,-3.4414 1.9007,0 3.4414,1.5407 3.4414,3.4414 0,1.9006 -1.5407,3.4413 -3.4414,3.4413 z m 132.4778,-61.77622 0,42.10982 -177.0963,0 0,-42.10982 z"
       inkscape:connector-curvature="0" />
    <path
       style="fill:none;stroke:#ff0000;stroke-width:0.35433072;stroke-linecap:butt;stroke-linejoin:miter;stroke-miterlimit:4;stroke-opacity:1;stroke-dasharray:none"
       d="m 761.87509,1034.3379 -46.2145,0 0,-11.1263 11.0039,0 0,-88.89343 -10.4804,0 0,-10.4804 46.0645,0 0,10.5801 -21.1646,0 0,88.66073 20.7911,0 z"
       id="path4148-0"
       inkscape:connector-curvature="0"
       sodipodi:nodetypes="ccccccccccccc" />
    <path
       id="rect3239-2"
       style="fill:none;stroke:#ff0000;stroke-width:0.35433072;stroke-linecap:butt;stroke-linejoin:miter;stroke-miterlimit:4;stroke-opacity:1"
       d="m 494.21322,966.45839 0,32.07239 -111.6219,0 0,-32.07239 z m -112.5247,60.19241 0,10.5853 112.6212,0 0,-10.6721 0,-88.15491 m -148.0542,88.23751 0,10.5852 17.3756,0 0,-10.672 18.0544,0.091 m -70.8631,0 0,10.5853 17.3761,0 0,-10.6721 18.057,0.087 m -18.0571,-88.23801 0,-10.67201 -17.376,0 0,10.5853 -10.6369,-0.026 0,44.1884 0,44.28802 10.6369,-0.1259 m 52.8092,-88.23802 0,-10.672 -17.3761,0 0,10.5852 -18.0571,0.087 m 166.1115,-4e-4 0,-10.6721 -112.6213,0 0,10.5853 -18.057,0.087 m -5.1587,73.04102 c -15.9992,0 -28.9691,-12.97002 -28.9691,-28.96922 0,-15.9992 12.9699,-28.9691 28.9691,-28.9691 15.9992,0 28.9691,12.9699 28.9691,28.9691 0,15.9992 -12.9699,28.96922 -28.9691,28.96922 z m -40.6728,-62.65732 c -1.9007,0 -3.4414,-1.5407 -3.4414,-3.4414 0,-1.9006 1.5407,-3.4413 3.4414,-3.4413 1.9006,0 3.4413,1.5407 3.4413,3.4413 0,1.9007 -1.5407,3.4414 -3.4413,3.4414 z m 0,74.48472 c -1.9007,0 -3.4414,-1.5407 -3.4414,-3.4414 0,-1.9006 1.5407,-3.4413 3.4414,-3.4413 1.9006,0 3.4413,1.5407 3.4413,3.4413 0,1.9007 -1.5407,3.4414 -3.4413,3.4414 z m 44.2913,-74.48472 c -1.9006,0 -3.4414,-1.5407 -3.4414,-3.4414 0,-1.9006 1.5408,-3.4413 3.4414,-3.4413 1.9006,0 3.4414,1.5407 3.4414,3.4413 0,1.9007 -1.5408,3.4414 -3.4414,3.4414 z m 0,74.48472 c -1.9006,0 -3.4414,-1.5407 -3.4414,-3.4414 0,-1.9006 1.5408,-3.4413 3.4414,-3.4413 1.9006,0 3.4414,1.5407 3.4414,3.4413 0,1.9007 -1.5408,3.4414 -3.4414,3.4414 z"
       inkscape:connector-curvature="0" />
  </g>
</svg>
